<svg xmlns="http://www.w3.org/2000/svg" viewBox="0 0 28.32 28.32" >
    <defs>
        <style>.cls-1{fill:#0071bb;}.cls-2{fill:#fff;}</style>
    </defs>
    <title>icon-profile</title>
    <g id="Слой_2" data-name="Слой 2">
        <g id="Capa_2" data-name="Capa 2">
            <path class="cls-1"
                  d="M14.16,28.32A14.16,14.16,0,1,1,28.32,14.16,14.17,14.17,0,0,1,14.16,28.32Zm0-28.07A13.91,13.91,0,1,0,28.07,14.16,13.93,13.93,0,0,0,14.16.25Z"/>
            <path class="cls-1" d="M26.85,14.16A12.69,12.69,0,1,1,14.16,1.47,12.69,12.69,0,0,1,26.85,14.16Z"/>
            <path class="cls-2"
                  d="M16.39,14.29a3.43,3.43,0,1,0-4.09,0,6.23,6.23,0,0,0-4.21,5.9h12.5A6.24,6.24,0,0,0,16.39,14.29Z"/>
        </g>
    </g>
</svg>