<svg xmlns="http://www.w3.org/2000/svg" viewBox="0 0 28.32 28.32"><defs><style>.cls-1{fill:#0071bb;}.cls-2{fill:#fff;}</style></defs><title>icon-skills</title><g id="Слой_2" data-name="Слой 2"><g id="Capa_2" data-name="Capa 2"><path class="cls-1" d="M14.16,28.32A14.16,14.16,0,1,1,28.32,14.16,14.17,14.17,0,0,1,14.16,28.32Zm0-28.07A13.91,13.91,0,1,0,28.07,14.16,13.93,13.93,0,0,0,14.16.25Z"/><path class="cls-1" d="M26.85,14.16A12.69,12.69,0,1,1,14.16,1.47,12.69,12.69,0,0,1,26.85,14.16Z"/><path class="cls-2" d="M20.09,11.76a5.93,5.93,0,1,0-8.92,5.1v.21a2.24,2.24,0,0,0,2.24,2.23h1.5a2.23,2.23,0,0,0,2.23-2.23v-.21A5.9,5.9,0,0,0,20.09,11.76Z"/><path class="cls-2" d="M16,20.15H12.34a1.17,1.17,0,0,0,0,2.34H16a1.17,1.17,0,0,0,0-2.34Z"/></g></g></svg>