<svg xmlns="http://www.w3.org/2000/svg" width="512pt" height="512pt" version="1" viewBox="0 0 512.000000 512.000000"><path d="M75.9 3.9c-3.8 2.5-5.7 6-6.4 11.7-.1 1.3-.4 2.7-.7 2.9-.3.3-5 .6-10.4.6-12.8 0-14.9.5-16.2 3.4-1.4 3.1-1.5 435.2-.1 436.1.5.3.7.9.5 1.3-.4.6.9 1 5.1 1.3 1.2.1 1.4 3.8.3 3.8-.4 0-.7.7-.7 1.6 0 1.5.1 1.5 1.2 0 1.6-2.1 2.7-.9 1.4 1.5-.7 1.5-.6 1.7.6 1.3.8-.3 1.2-1 .9-1.5-.3-.5.1-.9.8-.9 1.1 0 1.1-.2 0-.9-1-.6-.9-1.2.5-2.7 1-1.1 1.4-1.4.9-.7-.4.7-.5 2-.2 2.9.5 1.3.9 1.4 2.1.4 1-.9 1.5-.9 1.5-.1 0 1-1.3 1.5-3.3 1.2-.4 0-.7.4-.7.9 0 .6.5 1 1.1 1 .5 0 .8.4.5.8-.2.4.5.9 1.6.9 2 .2 2 .1.2-1.3-1.8-1.5-1.8-1.5.1-.9 1.1.4 2.5.8 3 .9.6.1 2 .7 3.2 1.4 1.7.9 2.2.9 2.6-.2.7-1.7-.8-4.2-1.7-2.8-.3.6-.3 1.2.1 1.5.5.2.1.2-.7-.1-.8-.2-2.1-.5-2.9-.6-.8-.2-1.5-.9-1.7-1.7-.1-.8-.4-2.1-.6-2.9-.3-.8-.3-1.2-.1-.7.3.4.9.5 1.3.2.5-.3 1.2 0 1.6.6.4.8.3.9-.4.5s-1.2-.3-1.2.2c0 1.7 1.3 2.2 2.8.9 1.1-.8 1.4-.9.9 0-.9 1.4 3.2 1.4 5 0 .9-.6 1.3-.6 1.3.2 0 .6-.5 1.1-1.1 1.1-.6 0-.9.7-.6 1.5.4.8.2 1.7-.3 2-.6.4-1 1.1-1 1.6 0 .6.7.3 1.6-.5.8-.9 1.2-2.1.8-2.7-.4-.7-.3-.9.3-.6 1.5.9 2.3-1.6 1.2-3.4-.5-.8-.9-1.9-.9-2.4 0-.6.9.5 2 2.3 2 3.2 2.9 6.1 1 3.2-.5-.8-1-1.1-1-.5 0 .5.9 2.1 2 3.5 1.5 1.8 1.8 2 1.3.6-.4-1.2-.3-1.7.4-1.3.6.4 1.6 0 2.3-.8 1-1.2.8-1.3-.9-1-1.2.2-2.1 0-2.1-.6 0-.5.5-.9 1.1-.9.5 0 .7-.6.3-1.3-.6-.9-.5-.9.8 0 .8.7 1.7 1.1 1.9.8.5-.5.8 4.9.9 18.5.1 9.3 1.5 14 4.1 14 1.6 0 3.9 2.7 3.1 3.5-.4.5-.2.5.5.1s1-1.3.7-2.1c-.6-1.4 2-1.6 3.1-.2.3.4.2.5-.2.2-.3-.3-1.2.7-1.9 2.1-1.1 2-1.1 3-.2 4.7.7 1.2 1.1 2.6.9 3.2-.1.5.1.6.6.2.4-.5.8-1.4.8-1.9 0-.6.6-1.3 1.4-1.6 1-.3 1.2 0 .7 1.4-.6 1.5-.4 1.6.5.7.9-.9 1.8-.8 3.8.4l2.6 1.5-2.4-2-2.4-1.9h2.6c1.7 0 2.4.4 2 1.1-.4.6 0 .5.9-.2 1.4-1.1 1.9-.9 3.3 1 1.1 1.4 1.5 1.7 1.2.6-.4-1-.2-2 .3-2.3.6-.4 1-.1 1 .4 0 .6.4 1.1 1 1.1.5 0 .9-.3.8-.8-.3-1 2.5-5.2 3.5-5.2.4 0 0 1.2-.9 2.6-1.5 2.2-1.5 2.7-.3 3.4.9.6 2.3.3 3.8-.7 2.2-1.4 2.4-1.4 1.8.1-.4 1-.3 1.5.3 1.1 1.8-1.1 1.2-3.8-.7-3-3.1 1.2-5.4 1.4-4.8.4.4-.5 1.3-.9 2-.9.9 0 1.2-.6.9-1.5-.4-.8-.1-1.5.6-1.5.6 0 .8.4.5 1-.3.5.3 1 1.5 1s1.8-.5 1.5-1c-.3-.6-.1-1 .5-1 .7 0 .9.8.5 1.9-.6 2 1.9 4.9 2.9 3.2.8-1.3 3.6-.7 4.7 1 .6 1 .9 1 .9.2 0-.7.6-1.2 1.3-1 .6.1 1.1-.4 1-1-.2-.7.1-1.3.7-1.3.5 0 .7-.7.4-1.5-.4-.8-.1-1.5.6-1.5.6 0 .8.5.4 1.2-.5.8-.2.9.9.5.9-.3 1.9-.2 2.2.4.4.5 1 .7 1.4.5.4-.3 1.3-.1 2.1.4 1 .6.1.8-2.7.5-2.4-.2-4.3 0-4.3.5 0 1.3 1.8 2.2 2.4 1.1.8-1.3 3.6-.7 4.7 1 .7 1.1.9 1 .9-.6l.1-2 1.6 2c1.4 1.8 1.5 1.8.9.2-.4-1.3-.2-1.7.6-1.4.7.2 1.2 1.1 1 1.8-.2.8 0 1.1.4.7.4-.4 1.4-.2 2.3.5 1.4 1 1.4 1 .3-.5-.9-1.1-1-1.8-.2-2.3.5-.3 1-.1 1 .6 0 .9.3.9 1.4 0 1.1-1 1.8-.7 3.1 1.1 1.1 1.4 1.5 1.7 1.2.6-.4-1-.2-2 .3-2.3.6-.4 1-.1 1 .4 0 .6.4 1.1 1 1.1.5 0 .9-.3.8-.7-.3-1.1 2.5-5.3 3.5-5.3.4 0 0 1.2-.9 2.6-1.5 2.2-1.5 2.7-.3 3.4.9.6 2.3.3 3.8-.7 2.2-1.4 2.4-1.4 1.8.1-.4 1-.3 1.5.3 1.1 1.8-1.1 1.2-3.8-.7-3-3.1 1.2-5.4 1.4-4.8.4.4-.5 1.3-.9 2-.9.9 0 1.2-.6.9-1.5-.4-.8-.1-1.5.6-1.5.6 0 .8.5.5 1-.3.6.3 1 1.5 1s1.8-.5 1.5-1c-.3-.6-.1-1 .5-1 .7 0 .9.8.5 1.9-.6 2 1.9 4.9 2.9 3.2.8-1.3 3.6-.7 4.7 1 .6 1 .9 1 .9.2 0-.7.6-1.2 1.3-1 .6.1 1.1-.4 1-1.1-.2-.6.1-1.2.7-1.2.5 0 .7-.7.4-1.5-.4-.8-.1-1.5.6-1.5.6 0 .8.5.4 1.2-.5.8-.2.9.9.5.9-.3 1.9-.2 2.2.4.4.5 1 .7 1.4.5.4-.3 1.3-.1 2.1.4 1 .6.1.8-2.7.5-2.4-.2-4.3 0-4.3.5 0 1.3 1.8 2.2 2.4 1.1.8-1.3 3.6-.7 4.7 1 .7 1.1.9 1 .9-.6l.1-2 1.6 2c1.4 1.8 1.5 1.8.9.2-.4-1.3-.2-1.7.6-1.4.7.2 1.2 1.1 1 1.8-.2.8 0 1.1.4.7.4-.4 1.4-.2 2.3.5 1.4 1 1.4 1 .3-.5-.9-1.1-1-1.8-.2-2.3.5-.3 1-.1 1 .6 0 .9.3.9 1.4 0 1.1-1 1.8-.7 3.1 1.1 1.1 1.4 1.5 1.7 1.2.6-.4-1-.2-2 .3-2.3.6-.4 1-.1 1 .4 0 .6.4 1.1 1 1.1.5 0 .9-.3.8-.8-.3-1 2.5-5.2 3.5-5.2.4 0 0 1.2-.9 2.6-1.5 2.2-1.5 2.7-.3 3.4.9.6 2.3.3 3.8-.7 2.2-1.4 2.4-1.4 1.8.1-.4 1-.3 1.5.3 1.1 1.8-1.1 1.2-3.8-.7-3-3.1 1.2-5.4 1.4-4.8.4.4-.5 1.3-.9 2-.9.9 0 1.2-.6.9-1.5-.4-.8-.1-1.5.6-1.5.6 0 .8.4.5 1-.3.5.3 1 1.5 1s1.8-.5 1.5-1c-.3-.6-.1-1 .5-1 .7 0 .9.8.5 1.9-.6 2 1.9 4.9 2.9 3.2.8-1.3 3.6-.7 4.7 1 .6 1 .9 1 .9.2 0-.7.6-1.2 1.3-1 .6.1 1.1-.4 1-1.1-.2-.6.1-1.2.7-1.2.5 0 .7-.7.4-1.5-.4-.8-.1-1.5.6-1.5.6 0 .8.5.4 1.2-.5.8-.2.9.9.5.9-.3 1.9-.2 2.2.4.4.5 1 .7 1.4.5.4-.3 1.3-.1 2.1.4 1 .6.1.8-2.7.5-2.4-.2-4.3 0-4.3.5 0 1.3 1.8 2.2 2.4 1.1.8-1.3 3.6-.7 4.7 1 .7 1.1.9 1 .9-.6l.1-2 1.6 2c1.4 1.8 1.5 1.8.9.2-.4-1.3-.2-1.7.6-1.4.7.2 1.2 1.1 1 1.8-.2.8 0 1.1.4.7.4-.4 1.4-.2 2.3.5 1.4 1 1.4 1 .3-.5-.9-1.1-1-1.8-.2-2.3.5-.3 1-.1 1 .6 0 .9.3.9 1.4 0 1.1-1 1.8-.7 3.1 1.1 1.1 1.4 1.5 1.7 1.2.6-.4-1-.2-2 .3-2.3.6-.4 1-.1 1 .4 0 .6.4 1.1 1 1.1.5 0 .9-.3.8-.8-.3-1 2.5-5.2 3.5-5.2.4 0 0 1.2-.9 2.6-1.5 2.2-1.5 2.7-.3 3.4.9.6 2.3.3 3.8-.7 2.2-1.4 2.4-1.4 1.8.1-.4 1-.3 1.5.3 1.1 1.8-1.1 1.2-3.8-.7-3-3.1 1.2-5.4 1.4-4.8.4.4-.5 1.3-.9 2-.9.9 0 1.2-.6.9-1.5-.4-.8-.1-1.5.6-1.5.6 0 .8.4.5 1-.3.5.3 1 1.5 1s1.8-.5 1.5-1c-.3-.6-.1-1 .5-1 .7 0 .9.8.5 1.9-.6 2 1.9 4.9 2.9 3.2.8-1.3 3.6-.7 4.7 1 .6 1 .9 1 .9.2 0-.7.6-1.2 1.3-1 .6.1 1.1-.4 1-1-.2-.7.1-1.3.7-1.3.5 0 .7-.7.4-1.5-.4-.8-.1-1.5.6-1.5.6 0 .8.5.4 1.2-.5.8-.2.9.9.5.9-.3 1.9-.2 2.2.4.4.5 1 .7 1.4.5.4-.3 1.3-.1 2.1.4 1 .6.1.8-2.7.5-2.4-.2-4.3 0-4.3.5 0 1.3 1.8 2.2 2.4 1.1.8-1.3 3.6-.7 4.7 1 .7 1.1.9 1 .9-.6l.1-2 1.6 2c1.4 1.8 1.5 1.8.9.2-.4-1.3-.2-1.7.6-1.4.7.2 1.2 1.1 1 1.8-.2.8 0 1.1.4.7.4-.4 1.4-.2 2.3.5 1.4 1 1.4 1 .3-.5-.9-1.1-1-1.8-.2-2.3.5-.3 1-.1 1 .6 0 .9.3.9 1.4 0 1.1-1 1.8-.7 3.1 1.1 1.1 1.4 1.5 1.7 1.2.6-.4-1-.2-2 .3-2.3.6-.4 1-.1 1 .4 0 .6.4 1.1 1 1.1.5 0 .9-.3.8-.7-.3-1.1 2.5-5.3 3.5-5.3.4 0 0 1.2-.9 2.6-1.5 2.2-1.5 2.7-.3 3.4.9.6 2.3.3 3.8-.7 2.2-1.4 2.4-1.4 1.8.1-.4 1-.3 1.5.3 1.1 1.8-1.1 1.2-3.8-.8-3-3 1.2-5.3 1.4-4.7.4.4-.5 1.3-.9 2-.9.9 0 1.2-.6.9-1.5-.4-.8-.1-1.5.6-1.5.6 0 .8.4.5 1-.3.5.3 1 1.5 1s1.8-.5 1.5-1c-.3-.6-.1-1 .5-1 .7 0 .9.8.5 1.9-.6 2 1.9 4.9 2.9 3.2.8-1.3 3.6-.7 4.7 1 .6 1 .9 1 .9.2 0-.7.6-1.2 1.3-1 .6.1 1.1-.4 1-1-.2-.7.1-1.3.7-1.3.5 0 .7-.7.4-1.5-.4-.8-.1-1.5.6-1.5.6 0 .8.5.4 1.2-.5.8-.2.9.9.5.9-.3 1.9-.2 2.2.4.4.5 1 .7 1.4.5.4-.3 1.3-.1 2.1.4 1 .6.1.8-2.7.5-2.4-.2-4.3 0-4.3.5 0 1.3 1.8 2.2 2.4 1.1.8-1.3 3.6-.7 4.7 1 .7 1.1.9 1 .9-.6l.1-2 1.6 2c1.4 1.8 1.5 1.8.9.2-.4-1.3-.2-1.7.6-1.4.7.2 1.2 1.1 1 1.8-.2.8 0 1.1.4.7.4-.4 1.4-.2 2.3.5 1.4 1 1.4 1 .3-.5-.9-1.1-1-1.8-.2-2.3.5-.3 1-.1 1 .6 0 .9.3.9 1.4 0 1.1-1 1.8-.7 3.1 1.1 1.1 1.4 1.5 1.7 1.2.6-.4-1-.2-2 .3-2.3.6-.4 1-.1 1 .4 0 .6.4 1.1 1 1.1.5 0 .9-.3.8-.8-.3-1 2.5-5.2 3.5-5.2.4 0 0 1.2-.9 2.6-1.5 2.2-1.5 2.7-.3 3.4.9.6 2.3.3 3.8-.7 2.2-1.4 2.4-1.4 1.8.1-.4 1-.3 1.5.3 1.1 1.8-1.1 1.2-3.8-.7-3-3.1 1.2-5.4 1.4-4.8.4.4-.5 1.3-.9 2-.9.9 0 1.2-.6.9-1.5-.4-.8-.1-1.5.6-1.5.6 0 .8.5.5 1-.3.6.3 1 1.5 1s1.8-.5 1.5-1c-.3-.6-.1-1 .5-1 .7 0 .9.8.5 1.9-.6 2 1.9 4.9 2.9 3.2.8-1.3 3.6-.7 4.7 1 .6 1 .9 1 .9.2 0-.7.6-1.2 1.3-1 .6.1 1.1-.4 1-1.1-.2-.6.1-1.2.7-1.2.5 0 .7-.7.4-1.5-.4-.8-.1-1.5.6-1.5.6 0 .8.5.4 1.2-.5.8-.2.9.9.5.9-.3 1.9-.2 2.2.4.4.5 1 .7 1.4.5.4-.3 1.3-.1 2.1.4 1 .6.1.8-2.7.5-2.4-.2-4.3 0-4.3.5 0 1.3 1.8 2.2 2.4 1.1.8-1.3 3.6-.7 4.7 1 .7 1.1.9 1 .9-.6l.1-2 1.6 2c1.4 1.8 1.5 1.8.9.2-.4-1.3-.2-1.7.6-1.4.7.2 1.2 1.1 1 1.8-.2.8 0 1.1.4.7.4-.4 1.4-.2 2.3.5 1.4 1 1.4 1 .3-.5-.9-1.1-1-1.8-.2-2.3.5-.3 1-.1 1 .6 0 .9.3.9 1.4 0 1.1-1 1.8-.7 3.1 1.1 1.1 1.4 1.5 1.7 1.2.6-.4-1-.2-2 .3-2.3.6-.4 1-.1 1 .4 0 .6.4 1.1 1 1.1.5 0 .9-.3.8-.8-.3-1 2.5-5.2 3.5-5.2.4 0 0 1.2-.9 2.6-1.5 2.2-1.5 2.7-.3 3.4.9.6 2.3.3 3.8-.7 2.2-1.4 2.4-1.4 1.8.1-.4 1-.3 1.5.3 1.1 1.8-1.1 1.2-3.8-.7-3-3.1 1.2-5.4 1.4-4.8.4.4-.5 1.3-.9 2-.9.9 0 1.2-.6.9-1.5-.4-.8-.1-1.5.6-1.5.6 0 .8.4.5 1-.3.5.3 1 1.5 1s1.8-.5 1.5-1c-.3-.6-.1-1 .5-1 .7 0 .9.7.6 1.6-.8 2 1.2 4.6 2.8 3.7 2-1.3 3.7-1.2 4.3.4.5 1.2.7 1.2 1.4.1.7-1.1 1.1-1 2 .2.9 1.3 1 1.3.6-.2-.5-1.3 0-1.6 1.9-1.4 1.3.2 2.7.6 3.1.9.3.4 1.3.2 2-.5 1.1-.9 1.6-.9 2.3.2.5.8.6 1.8.4 2.2-.3.4 0 .8.6.8.7 0 .9-.8.4-2.2-.6-1.9-.4-2.1.7-1.1 1.4 1.2 6.4 1.1 7.6-.1.3-.3 1.2-.1 1.9.5 1 .8 1.7.7 2.7-.3 1.6-1.7 2.2-7.2.5-6.2-.7.4-.8.3-.4-.5.4-.6 1.2-.9 1.7-.6.5.4.9-.1.9-1 0-1.3-.4-1.4-2.2-.4-2 1.1-2.1 1-1.1-.3.7-.8.9-1.8.5-2.3-.4-.4.2-.3 1.3.2 2.8 1.3 4.8 1.1 5.2-.7.4-1.2.3-1.2-.5-.1-.6.8-1.2.9-1.6.3-.3-.6-.2-1.3.4-1.7.6-.4.7-1.1.4-1.7-.5-.8-.1-.9 1.2-.5 1.5.6 1.3.3-.5-1.1-1.6-1.3-2-2.1-1.2-2.6.6-.4.8-1.2.5-1.8-.5-.7-.1-.9.9-.5 1 .3 1.7.2 1.7-.3 0-.6-.7-1-1.5-1s-1.5-.5-1.5-1c0-.6.6-1 1.3-1 .8 0 .7-.4-.3-1-.8-.5-1.1-1-.6-1 .5 0 .3-.6-.3-1.4-1-1.1-.8-1.7.9-2.9 1.6-1.1 1.8-1.6.7-2-.9-.3-1.3-1.6-1.2-3.1.2-1.4-.1-2.4-.6-2-.5.3-.9-.2-.9-1 0-1.9 1.1-2 3-.3 1.2 1 1.2.9.2-.5-1-1.3-1-1.7 0-2.2.7-.3.2-.3-1.2.1-2.1.5-2.3.4-1.3-.9.7-.8.9-1.9.5-2.3-.4-.5.1-.5 1.1-.2.9.4 1.7.2 1.7-.3 0-.6-.7-1-1.5-1s-1.5-.5-1.5-1c0-.6.6-1 1.3-1 .8 0 .7-.4-.3-1-.8-.5-1.1-1-.6-1 .5 0 .3-.6-.3-1.4-.8-1-.8-1.6.2-2.5.8-.6 1.8-.7 2.3-.3.5.4.2-.2-.7-1.3-.8-1.1-1.4-3-1.3-4.2 0-1.2-.3-2-.7-1.7-.5.3-.9-.2-.9-1.1 0-1 .6-1.5 1.3-1.2.8.3 1.4-.1 1.4-.8 0-.8-.7-1.1-1.6-.7-1.3.5-1.4.3-.4-1 .7-.8.9-1.9.5-2.3-.4-.5.2-.5 1.3-.2 1.9.7 1.9.6.3-.7-1-.7-1.8-1.7-1.8-2.1 0-.4.8-.4 1.8-.1 1.4.5 1.4.4-.2-.9-1.1-.8-1.6-1.5-1.2-1.5.5 0 .3-.6-.3-1.4-.8-1-.8-1.6.2-2.5.8-.6 1.8-.7 2.3-.3.5.4.2-.2-.7-1.3-.8-1.1-1.4-3-1.3-4.2 0-1.2-.3-2-.7-1.7-.5.3-.9-.2-.9-1.1 0-1 .6-1.5 1.3-1.2.8.3 1.4-.1 1.4-.8 0-.8-.7-1.1-1.6-.7-1.3.5-1.4.3-.4-1 .7-.8.9-1.9.5-2.3-.4-.5.2-.5 1.3-.2 1.9.7 1.9.6.3-.7-1-.7-1.8-1.7-1.8-2.1 0-.4.8-.4 1.8-.1 1.4.5 1.4.4-.2-.9-1.1-.8-1.6-1.5-1.2-1.5.5 0 .3-.6-.3-1.4-.8-1-.8-1.6.2-2.5.8-.6 1.8-.7 2.3-.3.5.4.2-.2-.7-1.3-.8-1.1-1.4-3-1.3-4.2 0-1.2-.3-2-.7-1.7-.5.3-.9-.2-.9-1.1 0-1 .6-1.5 1.3-1.2.8.3 1.4-.1 1.4-.8 0-.8-.7-1.1-1.6-.7-1.3.5-1.4.3-.4-1 .7-.8.9-1.9.5-2.3-.4-.5.2-.5 1.3-.2 1.9.7 1.9.6.3-.7-1-.7-1.8-1.7-1.8-2.1 0-.4.8-.4 1.8-.1 1.5.5 1.5.4.2-.6-2-1.7-2.3-5.1-.4-4.4.8.3 1.4.1 1.4-.4 0-.6-.7-1-1.5-1s-1.5-.5-1.5-1c0-.6.6-1 1.3-1 .8 0 .7-.4-.3-1-.8-.5-1.1-1-.6-1 .5 0 .3-.6-.3-1.4-1-1.1-.8-1.7.9-2.9 1.6-1.1 1.8-1.6.7-2-.9-.3-1.3-1.6-1.2-3.1.2-1.4-.1-2.4-.6-2-.5.3-.9-.2-.9-1 0-1.9 1.1-2 3-.3 1.2 1 1.2.9.2-.5-1-1.3-1-1.7 0-2.2.7-.3.2-.3-1.2.1-2.1.5-2.3.4-1.3-.9.7-.8.9-1.9.5-2.3-.4-.5.1-.5 1.1-.2.9.4 1.7.2 1.7-.3 0-.6-.7-1-1.5-1s-1.5-.5-1.5-1c0-.6.6-1 1.3-1 .8 0 .7-.4-.3-1-.8-.5-1.1-1-.6-1 .5 0 .3-.6-.3-1.4-1-1.1-.8-1.7.9-2.9 1.6-1.1 1.8-1.6.7-2-.9-.3-1.3-1.6-1.2-3.1.2-1.4-.1-2.4-.6-2-.5.3-.9-.2-.9-1 0-1.9 1.1-2 3-.3 1.2 1 1.2.9.2-.5-1-1.3-1-1.7 0-2.2.7-.3.2-.3-1.2.1-2.1.5-2.3.4-1.3-.9.7-.8.9-1.9.5-2.3-.4-.5.1-.5 1.1-.2.9.4 1.7.2 1.7-.3 0-.6-.7-1-1.5-1s-1.5-.5-1.5-1c0-.6.6-1 1.3-1 .8 0 .7-.4-.3-1-.8-.5-1.1-1-.6-1 .5 0 .3-.6-.3-1.4-.8-1-.8-1.6.2-2.5.8-.6 1.8-.7 2.3-.3.5.4.2-.2-.7-1.3-.8-1.1-1.4-3-1.3-4.2 0-1.2-.3-2-.7-1.7-.5.3-.9-.2-.9-1.1 0-1 .6-1.5 1.3-1.2.8.3 1.4-.1 1.4-.8 0-.8-.7-1.1-1.6-.7-1.3.5-1.4.3-.4-1 .7-.8.9-1.9.5-2.3-.4-.5.2-.5 1.3-.2 1.9.7 1.9.6.3-.7-2.3-1.7-2.3-3 0-2.2 1.4.5 1.4.4-.2-.9-1.1-.8-1.6-1.5-1.2-1.5.5 0 .3-.6-.3-1.4-.8-1-.8-1.6.2-2.5.8-.6 1.8-.7 2.3-.3.5.4.2-.2-.7-1.3-.8-1.1-1.4-3-1.3-4.2 0-1.2-.3-2-.7-1.7-.5.3-.9-.2-.9-1.1 0-1 .6-1.5 1.3-1.2.8.3 1.4-.1 1.4-.8 0-.8-.7-1.1-1.6-.7-1.4.5-1.4.3-.2-1.1.7-.9 1-1.7.5-1.8-.5 0 0-.4 1.1-.9 1.8-.8 1.8-.9.2-.9-1-.1-1.5-.5-1.2-1.1.3-.5.1-1-.5-1s-.8 1.1-.6 2.5c.3 1.7.1 2.3-.6 1.9-.7-.5-.8-.2-.3.6.6.9.4 1.1-.6.5-1.1-.7-1.1-.5.1 1 .9 1.1 1 1.6.3 1.1-1.7-1-1.6.5.1 2.9.7 1.1 1.3 2.7 1.3 3.7 0 1.3-.4 1.4-2.5.5-1.3-.6-1.9-1.3-1.3-1.5.9-.3.8-.8-.1-2-.9-1.1-.9-1.4-.1-.9.9.6 1.1-.1.8-2.4-.3-2.1.1-3.6 1.1-4.4 1.3-.9 1.3-1.3-.5-2.9-1.9-1.7-1.9-1.9-.2-3.7 1.8-2 2.1-4.5.7-6.7-.4-.6-.4-1.2.1-1.2.4 0 .1-.5-.7-1.1-1.2-.9-1.2-1 .4-.5 1.3.4 1.7.2 1.3-.7-.3-.8-.1-2 .5-2.8.8-1.1.9-1.1.5.3-.3.9.1 1.9.9 2.2.8.3 1.2.1.9-.4-.3-.5 0-.7.8-.4.8.3 1.8 0 2.2-.6.4-.7 0-1-1.1-.8-2.6.4-2.9-4.5-.4-6.7 1.9-1.7 1.8-3.5-.1-3.5-.6 0-.7.6-.3 1.2.4.7.3.9-.1.5-.5-.4-1-1.4-1.1-2.2-.2-1.1.2-1.2 1.6-.5 1.3.7 2 .6 2.2-.2.3-.8 1.2-.6 2.9.5 2.4 1.6 2.5 1.6 2.6-.6 0-1.2-.1-1.6-.4-1-.3.7-.9 1.3-1.4 1.3-.6 0-.7-.5-.4-1.1.4-.5-.1-2-1.2-3.1-1-1.2-1.3-1.8-.6-1.5.6.4 1.4.3 1.8-.3.6-1-.3-1.3-3.7-1.3-1 0-1.5-.3-1.3-.8.3-.4 1.7-.6 3.1-.3 1.5.3 2.3.1 2-.5-1.2-1.8 2.4-.5 4.4 1.7 1.2 1.2 2.4 2.2 2.7 2.2.3 0-.1-.8-1-1.8-2.2-2.4-2.2-3.8 0-2.1 1 .8 1.4.9 1 .2-.4-.6-.3-1.4.3-1.8 1-.6 1.5.9 1 3-.1.5.2.6.6.2 1.3-1.2 1.3-3.7.1-3.7-.6 0-.2-1 1-2.2 1.8-1.7 2.5-1.9 3.7-.9 1.1.9 1.6.9 2.2 0 .4-.7.3-.9-.4-.5-.6.3-1.3.2-1.7-.4-.3-.5-.1-1 .6-1s.4-.7-.7-1.5c-1.8-1.4-1.8-1.4 0-1.5 1.2 0 1.6-.5 1.3-1.4-.4-.9.1-1.7 1.2-2.1 1-.3 1.8-1.2 1.8-2s-.4-1.2-.8-1c-.4.3-1-.2-1.3-1.1-.9-2.5-.8-2.6 1.9-.8 2.3 1.5 2.5 1.5 1.9 0-.3-.9-1-1.4-1.4-1.1-.5.3-1.1.1-1.4-.4-.4-.5.2-1.2 1.1-1.4 1.5-.4 1.4-.5-.3-.6-1.2-.1-2.6.8-3.3 2.1-.6 1.3-.9 1.5-.7.6.3-.9 0-1.9-.7-2.2-.7-.2-.4-.5.5-.5 1-.1 1.7-.4 1.7-.9-.5-2.8.1-3.4 1.8-2.1 1.2 1 1 .4-.5-1.8-1.2-1.7-2.2-3.5-2.2-4 0-1.4-6.1-7.3-9.2-8.9-1.6-.8-4.5-1.7-6.4-2-3-.3-3.9.1-6.1 2.6-1.3 1.7-2.9 2.7-3.5 2.4-.5-.3-.8.2-.6 1.1.2 1-.4 2-1.2 2.2-.9.3-1.1.1-.5-.4.6-.4 1-1.9.9-3.3-.2-3.2.5-5 1.9-5 .7 0 .7.4-.1 1.2-1.6 1.6-1.5 2.5.3 2.5.8 0 1.2-.4.9-.9-.3-.5-.1-1.4.4-2.1 1.1-1.5 1.2-4.8 0-4.1-.4.3-.8-.2-.8-1.1 0-1.2.4-1.3 1.8-.6 1.5.8 1.8.6 1.8-1.4 0-1.3-.4-2.1-.8-1.9-.5.3-.6 1-.3 1.5.4.5.2.9-.3.9-1.6 0-2.2-1.3-1.1-2.7.6-.7.8-1.3.3-1.3s-.2-.5.6-1c.9-.6 1-1 .3-1-.6 0-1-.9-.8-2 .2-1.1 0-1.8-.6-1.5-.5.4-.9-.1-.9-1 0-1 .6-1.5 1.3-1.2.8.3 1.4-.1 1.4-.8 0-.8-.7-1.1-1.6-.7-1.3.5-1.4.3-.4-1 .7-.8.9-1.9.5-2.3-.4-.5.2-.5 1.3-.2 1.9.7 1.9.6.3-.7-1-.7-1.8-1.7-1.8-2.1 0-.4.8-.4 1.8-.1 1.4.5 1.4.4-.2-.9-1.1-.8-1.6-1.5-1.2-1.5.5 0 .3-.6-.3-1.4-.8-1-.8-1.6.2-2.5.8-.6 1.8-.7 2.3-.3.5.4.2-.2-.7-1.3-.8-1.1-1.4-3-1.3-4.2 0-1.2-.3-2-.7-1.7-.5.3-.9-.2-.9-1.1 0-1 .6-1.5 1.3-1.2.8.3 1.4-.1 1.4-.8 0-.8-.7-1.1-1.6-.7-1.3.5-1.4.3-.4-1 .7-.8.9-1.9.5-2.3-.4-.5.2-.5 1.3-.2 1.9.7 1.9.6.2-.7-2.2-1.7-2.2-3 .1-2.2 1.4.5 1.4.4-.2-.9-1.1-.8-1.6-1.5-1.2-1.5.5 0 .3-.6-.3-1.4-.8-1-.8-1.6.2-2.5.8-.6 1.8-.7 2.3-.3.5.4.2-.2-.7-1.3-.8-1.1-1.4-3-1.3-4.2 0-1.2-.3-2-.7-1.7-.5.3-.9-.2-.9-1.1 0-1 .6-1.5 1.3-1.2.8.3 1.4-.1 1.4-.8 0-.8-.7-1.1-1.6-.7-1.3.5-1.4.3-.4-1 .7-.8.9-1.9.5-2.3-.4-.5.2-.5 1.3-.2 1.9.7 1.9.6.2-.7-2.2-1.7-2.2-3 .1-2.2 1.5.5 1.5.4.2-.6-2-1.7-2.3-5.1-.4-4.4.8.3 1.4.1 1.4-.4 0-.6-.7-1-1.5-1s-1.5-.5-1.5-1c0-.6.6-1 1.3-1 .8 0 .7-.4-.3-1-.8-.5-1.1-1-.6-1 .5 0 .3-.6-.3-1.4-1-1.1-.8-1.7.9-2.9 1.6-1.1 1.8-1.6.7-2-.9-.3-1.3-1.6-1.2-3.1.2-1.4-.1-2.4-.6-2-.5.3-.9-.2-.9-1 0-1.9 1.1-2 3-.4 1.2 1.1 1.2 1 .2-.4-1-1.3-1-1.7 0-2.2.7-.3.2-.3-1.2.1-2.1.5-2.3.4-1.3-.9.7-.8.9-1.9.5-2.3-.4-.5.1-.5 1.1-.2.9.4 1.7.2 1.7-.3 0-.6-.7-1-1.5-1s-1.5-.5-1.5-1c0-.6.6-1 1.3-1 .8 0 .7-.4-.3-1-.8-.5-1.1-1-.6-1 .5 0 .3-.6-.3-1.3-.8-1.1-.6-1.8.9-3.2 1.1-1 2-2.3 2-2.9 0-.6-.4-.5-.9.3-1 1.6-1.8.4-1.5-2.6 0-1.2-.3-2-.7-1.7-.5.3-.9-.2-.9-1.1 0-1.2.6-1.5 2.3-1.1 1.2.3 1.6.3.9 0-.6-.3-1-1-.7-1.5.4-.5-.2-.6-1.2-.2-1.6.6-1.6.5-.4-1 .7-.9 1-1.7.5-1.7s-.2-.5.6-1c1.1-.7 1.1-1 .2-1-.7 0-1-.5-.7-1 .3-.6 0-1-.7-1-.9 0-.9-.3.2-1 .8-.5 1-1 .5-1-.6 0-1.6.5-2.3 1.2-.9.9-1.2.9-1.2-.1 0-.7-.4-.9-1-.6-.6.3-.7-.1-.3-1 .5-1.3.7-1.4 1.4-.3.5.7.9.8.9.2 0-.5-.5-1.5-1.2-2.2-.6-.6-1.3-3.1-1.5-5.4-.5-7.1-2.1-7.8-18.4-7.8-8.6 0-13.9-.4-13.9-1s-.5-1-1.1-1c-.5 0-.7.4-.4 1 .3.5.2 1-.2 1-.5 0-1.4-.9-2.1-2.1-.8-1.2-.9-1.8-.4-1.5 1.1.7 2.2-1.6 2.2-4.5 0-1 .5-1.9 1.1-1.9.5 0 .7.5.3 1.2-.5.7-.3.8.6.3 1-.6.9-1.1-.6-2.3-1.8-1.4-1.8-1.4.5-.9 1.7.4 2.1.3 1.3-.5-1.3-1.3-4.6-.2-3.7 1.2.3.5.1 1-.5 1s-.9.4-.6.9c.3.5-.1 1.2-.9 1.5-1.2.4-1.3.2-.6-1.3.6-1 .7-2.1.4-2.5-.3-.3-.1-.6.5-.6.7 0 1.2-.5 1.2-1.1 0-.6-.7-.8-1.6-.5-1.3.5-1.4.3-.7-.6 1.1-1.5 1.1-2.8 0-4.5-.4-.6-.2-1.5.4-1.9.8-.4.7-.9-.2-1.5-1-.6-1.1-.9-.1-.9.6 0 1.2-.5 1.2-1.1 0-.5-.4-.7-1-.4-.6.3-1 .1-1-.4 0-.6.5-1.1 1.1-1.1.8 0 .8-.4 0-1.3-.8-1-.7-1.7.2-2.7 1-1 .9-1.1-.2-.5-1.1.6-1.3.4-.8-.8.3-.9-.4-2.6-1.7-4l-2.3-2.5H251.1c-81.5 0-148.4-.2-148.7-.5-.3-.3-.8-2-1.1-3.9C99.5 2.7 86.4-2.9 75.9 3.9zm17.7 4.6c2 2 3.4 5.3 3.4 8.2 0 2.8-.1 2.8-5.8 2.6-3.1 0-8.5-.2-11.9-.2l-6.2-.1.5-3.3c.9-5.1 3.6-8.1 8.5-9.3 4.5-1.1 9.1-.3 11.5 2.1zM404.5 56c.3.5.1 1-.4 1-.6 0-1.1-.5-1.1-1 0-.6.2-1 .4-1 .3 0 .8.4 1.1 1zm40.6 19.9c0 .3.2 1.4.4 2.3.2 1-.1 2-.6 2.4-.5.3-.6 1-.3 1.6.4.7.2.8-.4.4-1.7-1-1.5.6.4 3.2.9 1.3 1.3 2.6 1 2.9-.3.3-.1 1.2.4 1.8.7.9.6 1.6-.5 2.5-.8.7-1.5.9-1.5.5s-.6-.2-1.4.4c-1.2 1-1.4.9-1.2-.6.2-1 .8-1.9 1.4-1.9 2.6-.3 2.6-.5.2-1.9-1.4-.8-1.9-1.4-1.1-1.5 1.1 0 1.1-.3 0-1.7-.8-.9-.9-1.4-.3-1 1.2.7 1.3-5.7.2-6.9-1-1 .2-3.1 1.7-3.1.8 0 1.5.3 1.6.6zm.4 24c0 2.3-.3 4.5-.7 4.7-.5.3-.5 1-.2 1.6.4.7.2.8-.4.4-1.7-1-1.5.6.4 3.2.9 1.3 1.3 2.6 1 2.9-.3.3-.1 1.2.4 1.8.7.9.6 1.6-.5 2.5-.8.7-1.5.9-1.5.5s-.6-.2-1.4.4c-1.2 1-1.4.9-1.2-.6.2-1 .8-1.9 1.4-1.9 2.6-.3 2.6-.5.2-1.9-1.4-.8-1.9-1.4-1.1-1.5 1.1 0 1.1-.3 0-1.7-.8-.9-.9-1.4-.3-1 1.2.7 1.3-5.7.1-6.9-.3-.4 0-1.9.8-3.4s1.1-3.1.7-3.5c-.4-.4 0-.6.8-.3.9.3 1.4 1.9 1.5 4.7zm0 28c0 4.5-.3 8.5-.7 8.7-.5.3-.5 1-.2 1.6.4.7.2.8-.4.4-1.7-1-1.5.6.4 3.2.9 1.3 1.3 2.6 1 2.9-.3.3-.1 1.2.4 1.8.7.9.6 1.6-.5 2.5-.8.7-1.5.9-1.5.5s-.6-.2-1.4.4c-1.2 1-1.4.9-1.2-.6.2-1 .8-1.9 1.4-1.9 2.6-.3 2.6-.5.2-1.9-1.4-.8-1.9-1.4-1.1-1.5 1.1 0 1.1-.3 0-1.7-.8-.9-.9-1.4-.3-1 1.2.7 1.3-5.7.1-6.9-.3-.4 0-1.9.8-3.4 1.3-2.4 1.3-3 0-4s-1.3-1.6 0-4c.8-1.5 1.1-3.1.7-3.5-.4-.4 0-.6.8-.3 1.1.3 1.5 2.3 1.5 8.7zm0 28c0 2.3-.3 4.5-.7 4.7-.5.3-.5 1-.2 1.6.4.7.2.8-.4.4-1.7-1-1.5.6.4 3.2.9 1.3 1.3 2.6 1 2.9-.3.3-.1 1.2.4 1.8.7.9.6 1.6-.5 2.5-.8.7-1.5.9-1.5.5s-.6-.2-1.4.4c-1.2 1-1.4.9-1.2-.6.2-1 .8-1.9 1.4-1.9 2.6-.3 2.6-.5.2-1.9-1.4-.8-1.9-1.4-1.1-1.5 1.1 0 1.1-.3 0-1.7-.8-.9-.9-1.4-.3-1 1.2.7 1.3-5.7.1-6.9-.3-.4 0-1.9.8-3.4s1.1-3.1.7-3.5c-.4-.4 0-.6.8-.3.9.3 1.4 1.9 1.5 4.7zm0 24c0 2.3-.3 4.5-.7 4.7-.5.3-.5 1-.2 1.6.4.7.2.8-.4.4-1.5-.9-1.5 0 0 2.7s1.8 6.6.6 7.3c-.4.3-.5 1-.2 1.6.5.7.2.8-.6.3-1-.6-1.2-.4-.7.8.4 1 .1 1.7-.5 1.7s-.8.3-.4.7c.4.5 1.3.8 1.9.8.5 0 1.2.7 1.4 1.5.4 1.3.3 1.3-.6 0-.6-.8-1.1-1.1-1.1-.6 0 .5-.7.3-1.4-.4-1.1-.8-1.2-1.8-.6-3.5.6-1.5.4-2.7-.3-3.5-.9-1-.9-1.1 0-.6 1.5.8 1.4-3.3-.1-5.3-.8-1.1-.8-1.3 0-.8 1.2.7 1.3-5.7.1-6.9-.3-.4 0-1.9.8-3.4s1.1-3.1.7-3.5c-.4-.4 0-.6.8-.3.9.3 1.4 1.9 1.5 4.7zm21.5 48.6c0 .8-.4 1.5-1 1.5-.5 0-.7-.7-.4-1.5.4-.8.8-1.5 1-1.5.2 0 .4.7.4 1.5zm3 4.5c-.8.6-2.1.8-2.7.5-.7-.2-1.3-.3-1.3-.1 0 .3-.3 1.3-.6 2.3-.6 1.5-.4 1.6.7.5.7-.6 1.8-1.2 2.4-1.2.5 0 .2.5-.8 1.1-1.4.8-1.6 1.4-.6 2.5 1 1.2.9 1.3-.6.8-1.1-.5-1.6-.4-1.2.3.7 1.2-3.6 5.6-5.8 5.9-.9.1-1.2-.2-.8-.9.4-.7 0-.8-1.3-.4-1.2.5-1 0 .8-1.3 1.7-1.4 2.5-2.7 2.2-3.8-.5-1.3-.4-1.4.4-.3.7.9 1.2 1 1.6.2.4-.6 1.2-.8 1.8-.5.8.5.9.1.5-1-.4-1-.2-2.6.3-3.6.7-1.3.6-2-.3-2.3-.6-.2-.5-.3.4-.2.9.1 2.3-.1 3-.6.8-.5 1.8-.4 2.4.2.6.6.5 1.3-.5 1.9zm-7 3.1c0 1.4-1.7 1-2.3-.5-.4-1-.1-1.3.9-.9.7.3 1.4.9 1.4 1.4zm-6.8 6.1c-.6.6-1.2.6-1.7-.3-.5-.8-.4-1 .3-.5.7.4 1.2 0 1.3-1.1 0-1.2.2-1.3.6-.5.3.8.1 1.8-.5 2.4zm-1.7 1.8c.3.5.1 1-.4 1-.6 0-1.1-.5-1.1-1 0-.6.2-1 .4-1 .3 0 .8.4 1.1 1zm-3.8 8.9c.7-.7 1.4-.4 2.4.8 1.2 1.6 1.2 1.7-.2.6-1-.8-1.9-.9-2.5-.3-.7.7-1.7.3-3-1.2-1.9-2.3-1.9-2.3.2-.6 1.4 1.2 2.4 1.4 3.1.7zm-5.9 7.6c-.3.3-.9-.2-1.2-1.2-.6-1.4-.5-1.5.5-.6.7.7 1 1.5.7 1.8zm-2.7 17.8c-1 .9-1.1.8-.5-.6.3-1 .9-1.5 1.2-1.2.3.3 0 1.1-.7 1.8zm3.7 22.4c-.6.8-1.3 1.1-1.6.8-.3-.3-1.1 0-1.8.6-.9.8-1.2.6-.9-.8.4-2.2 0-1.9 3-1.9 1.9 0 2.2.3 1.3 1.3zm-.3 7.2c0 2.3-.3 4.5-.7 4.7-.5.3-.5 1-.2 1.6.4.7.2.8-.4.4-1.7-1-1.5.6.4 3.2.9 1.3 1.3 2.6 1 2.9-.3.3-.1 1.2.4 1.8.7.9.6 1.6-.5 2.5-.8.7-1.5.9-1.5.5s-.6-.2-1.4.4c-1.2 1-1.4.9-1.2-.6.2-1 .8-1.9 1.4-1.9 2.6-.3 2.6-.5.2-1.9-1.4-.8-1.9-1.4-1.1-1.5 1.1 0 1.1-.3 0-1.7-.8-.9-.9-1.4-.3-1 1.2.7 1.3-5.7.1-6.9-.3-.4 0-1.9.8-3.4s1.1-3.1.7-3.5c-.4-.4 0-.6.8-.3.9.3 1.4 1.9 1.5 4.7zm0 24c0 2.3-.3 4.5-.7 4.7-.5.3-.5 1-.2 1.6.4.7.2.8-.4.4-1.7-1-1.5.6.4 3.2.9 1.3 1.3 2.6 1 2.9-.3.3-.1 1.2.4 1.8.7.9.6 1.6-.5 2.5-.8.7-1.5.9-1.5.5s-.6-.2-1.4.4c-1.2 1-1.4.9-1.2-.6.2-1 .8-1.9 1.4-1.9 2.6-.3 2.6-.5.2-1.9-1.4-.8-1.9-1.4-1.1-1.5 1.1 0 1.1-.3 0-1.7-.8-.9-.9-1.4-.3-1 1.2.7 1.3-5.7.1-6.9-.3-.4 0-1.9.8-3.4s1.1-3.1.7-3.5c-.4-.4 0-.6.8-.3.9.3 1.4 1.9 1.5 4.7zm0 24c0 2.3-.3 4.5-.7 4.7-.5.3-.5 1-.2 1.6.4.7.2.8-.4.4-1.7-1-1.5.6.4 3.2.9 1.3 1.3 2.6 1 2.9-.3.3-.1 1.2.4 1.8.7.9.6 1.6-.5 2.5-.8.7-1.5.9-1.5.5s-.6-.2-1.4.4c-1.2 1-1.4.9-1.2-.6.2-1 .8-1.9 1.4-1.9 2.6-.3 2.6-.5.2-1.9-1.4-.8-1.9-1.4-1.1-1.5 1.1 0 1.1-.3 0-1.7-.8-.9-.9-1.4-.3-1 1.2.7 1.3-5.7.1-6.9-.3-.4 0-1.9.8-3.4s1.1-3.1.7-3.5c-.4-.4 0-.6.8-.3.9.3 1.4 1.9 1.5 4.7zm0 28c0 4.5-.3 8.5-.7 8.7-.5.3-.5 1-.2 1.6.4.7.2.8-.4.4-1.7-1-1.5.6.4 3.2.9 1.3 1.3 2.6 1 2.9-.3.3-.1 1.2.4 1.8.7.9.6 1.6-.5 2.5-.8.7-1.5.9-1.5.5s-.6-.2-1.4.4c-1.2 1-1.4.9-1.2-.6.2-1 .8-1.9 1.4-1.9 2.6-.3 2.6-.5.2-1.9-1.4-.8-1.9-1.4-1.1-1.5 1.1 0 1.1-.3 0-1.7-.8-.9-.9-1.4-.3-1 1.2.7 1.3-5.7.1-6.9-.3-.4 0-1.9.8-3.4 1.3-2.4 1.3-3 0-4s-1.3-1.6 0-4c.8-1.5 1.1-3.1.7-3.5-.4-.4 0-.6.8-.3 1.1.3 1.5 2.3 1.5 8.7zm0 28c0 2.3-.3 4.5-.7 4.7-.5.3-.5 1-.2 1.6.4.7.2.8-.4.4-1.7-1-1.5.6.4 3.2.9 1.3 1.3 2.6 1 2.9-.3.3-.1 1.2.4 1.8.7.9.6 1.6-.5 2.5-.8.7-1.5.9-1.5.5s-.6-.2-1.4.4c-1.2 1-1.4.9-1.2-.6.2-1 .8-1.9 1.4-1.9 2.6-.3 2.6-.5.2-1.9-1.4-.8-1.9-1.4-1.1-1.5 1.1 0 1.1-.3 0-1.7-.8-.9-.9-1.4-.3-1 1.2.7 1.3-5.7.1-6.9-.3-.4 0-1.9.8-3.4s1.1-3.1.7-3.5c-.4-.4 0-.6.8-.3.9.3 1.4 1.9 1.5 4.7zm0 24c0 2.3-.3 4.5-.7 4.7-.5.3-.5 1-.2 1.6.4.7.2.8-.4.4-1.7-1-1.5.6.4 3.2.9 1.3 1.3 2.6 1 2.9-.3.3-.1 1.2.4 1.8.7.9.6 1.6-.5 2.5-.8.7-1.5.9-1.5.5s-.6-.2-1.4.4c-1.2 1-1.4.9-1.2-.6.2-1 .8-1.9 1.4-1.9 2.6-.3 2.6-.5.2-1.9-1.4-.8-1.9-1.4-1.1-1.5 1.1 0 1.1-.3 0-1.7-.8-.9-.9-1.4-.3-1 1.2.7 1.3-5.7.1-6.9-.3-.4 0-1.9.8-3.4s1.1-3.1.7-3.5c-.4-.4 0-.6.8-.3.9.3 1.4 1.9 1.5 4.7zm0 24c0 2.3-.3 4.5-.7 4.7-.5.3-.5 1-.2 1.6.4.7.2.8-.4.4-1.7-1-1.5.6.4 3.2.9 1.3 1.3 2.6 1 2.9-.3.3-.1 1.2.4 1.8.7.9.6 1.6-.5 2.5-.8.7-1.5.9-1.5.5s-.6-.2-1.4.4c-1.2 1-1.4.9-1.2-.6.2-1 .8-1.9 1.4-1.9 2.6-.3 2.6-.5.2-1.9-1.4-.8-1.9-1.4-1.1-1.5 1.1 0 1.1-.3 0-1.7-.8-.9-.9-1.4-.3-1 1.2.7 1.3-5.7.1-6.9-.3-.4 0-1.9.8-3.4s1.1-3.1.7-3.5c-.4-.4 0-.6.8-.3.9.3 1.4 1.9 1.5 4.7zm-382.8 2.6c0 .8-.4 1.2-.9.9-.5-.3-.6-1-.3-1.5.9-1.3 1.2-1.1 1.2.6zm11.8.6c-.3 1.2-.7 2.4-1 2.7-.3.3-.3-.5-.1-1.9.6-3 .5-2.9 1-2.9.3 0 .3 1 .1 2.1zM51 464c0 .5-.2 1-.4 1-.3 0-.8-.5-1.1-1-.3-.6-.1-1 .4-1 .6 0 1.1.4 1.1 1zm16.5 0c-.3.5-1.2 1-1.8 1-.7 0-.6-.4.3-1 1.9-1.2 2.3-1.2 1.5 0zm378 19.9c0 2.3-.3 4.5-.7 4.7-.5.3-.5 1.1-.1 1.7 1.1 1.8 1.2 3.6.2 4.3-.5.3-.6 1.1-.2 1.7.3.7-.3.4-1.5-.7-1.2-1-2-2.2-1.7-2.6 1-1.6 1.3-6 .4-6.5-.5-.4-.3-1.8.6-3.4.8-1.6 1.1-3.2.7-3.6-.4-.4 0-.6.8-.3.9.3 1.4 1.9 1.5 4.7zM94.5 502c-.3 3.3 1.4 4 3.5 1.5.7-.8 1.7-1.2 2.2-.9 1.9 1.2-2.2 4.1-5.5 3.9-1.7-.2-3.7.2-4.3.6-.8.6-1.4.3-1.8-.8-.7-1.8 1.6-4.3 4.1-4.3.7 0 1.2-.3 1.2-.8-.2-1.1.1-2.2.5-2.2.2 0 .2 1.3.1 3zm31.5-1.4c0 .2-1.1.3-2.4.2-1.4-.1-2.3-.5-2-.9.4-.7 4.4 0 4.4.7zm6.4-.8c.3.5-.1.9-.9.9s-1.2-.4-.9-.9c.3-.4.7-.8.9-.8.2 0 .6.4.9.8zm41.6.8c0 .2-1.1.3-2.4.2-1.4-.1-2.3-.5-2-.9.4-.7 4.4 0 4.4.7zm6.4-.8c.3.5-.1.9-.9.9s-1.2-.4-.9-.9c.3-.4.7-.8.9-.8.2 0 .6.4.9.8zm41.6.8c0 .2-1.1.3-2.4.2-1.4-.1-2.3-.5-2-.9.4-.7 4.4 0 4.4.7zm6.4-.8c.3.5-.1.9-.9.9s-1.2-.4-.9-.9c.3-.4.7-.8.9-.8.2 0 .6.4.9.8zm41.6.8c0 .2-1.1.3-2.4.2-1.4-.1-2.3-.5-2-.9.4-.7 4.4 0 4.4.7zm6.4-.8c.3.5-.1.9-.9.9s-1.2-.4-.9-.9c.3-.4.7-.8.9-.8.2 0 .6.4.9.8zm41.6.8c0 .2-1.1.3-2.4.2-1.4-.1-2.3-.5-2-.9.4-.7 4.4 0 4.4.7zm6.4-.8c.3.5-.1.9-.9.9s-1.2-.4-.9-.9c.3-.4.7-.8.9-.8.2 0 .6.4.9.8zm41.6.8c0 .2-1.1.3-2.4.2-1.4-.1-2.3-.5-2-.9.4-.7 4.4 0 4.4.7zm6.4-.8c.3.5-.1.9-.9.9s-1.2-.4-.9-.9c.3-.4.7-.8.9-.8.2 0 .6.4.9.8zm41.6.8c0 .2-1.1.3-2.4.2-1.4-.1-2.3-.5-2-.9.4-.7 4.4 0 4.4.7zm12.6.1c-.2.9-.9 1.9-1.7 2.1-1.1.3-1.1.1.1-.7.8-.6 1.1-1.1.7-1.1-.5 0-.5-.5-.2-1 .9-1.5 1.4-1.2 1.1.7zm2.9 1.9c-.8.6-1.5 1.5-1.5 1.9 0 .5.3.5.6.2.4-.3 1.5-.2 2.5.3 1.1.6 2 .6 2.4.1.3-.5-.3-1.2-1.2-1.5-1-.2-.3-.3 1.5-.1 1.7.2 3.2 0 3.2-.5 0-.4.8-1.1 1.7-1.4 1.5-.6 1.5-.4-.2 1.4-1 1.1-1.3 2-.7 2 .6 0 1.4-.5 1.7-1 .9-1.4 2.4-1.2 2.1.2-.4 2.6-1.8 4.1-2.6 2.8-.5-.9-1.3-.9-2.7-.1-1.1.6-3.1.8-4.4.5-1.3-.3-2.9-.6-3.4-.6-1.6-.2-1.6-3.8 0-4.4.8-.3 1.1-1.3.8-2.2-.4-1.5-.3-1.5.6-.2.8 1.1.7 1.8-.4 2.6zm9.5-3.2c0 .3-.4.8-1 1.1-.5.3-1 .1-1-.4 0-.6.5-1.1 1-1.1.6 0 1 .2 1 .4zm-332.6 1.5c.3.4-.6.6-2.1.3-1.9-.4-2.4-.2-1.8.8.5.9.4 1.1-.4.6-.6-.4-.9-1.2-.6-1.7.8-1.1 4.2-1.2 4.9 0zm10.1.1c.3.5.1 1-.4 1-.6 0-1.1-.5-1.1-1 0-.6.2-1 .4-1 .3 0 .8.4 1.1 1zm6.4 4.5c.9 1.1 1.2 1.7.7 1.3-.5-.4-1.5-.3-2.2.3-.8.7-1.4.7-1.9-.1-.3-.5.1-1 1-1 1.5 0 1.5-.2.1-2.2-.9-1.2-1.6-2.7-1.6-3.3 0-.5.6-.1 1.2 1s1.8 2.9 2.7 4zm13.2-2.8c-1.2 2-1.4 1.4-.5-1.2.4-.9.9-1.4 1.1-1.1.3.2 0 1.3-.6 2.3zm4.4-1.7c.3.5.1 1-.4 1-.6 0-1.1-.5-1.1-1 0-.6.2-1 .4-1 .3 0 .8.4 1.1 1zm4.7.4c.7-.4.8-.2.4.5-.9 1.3-2.6.5-2.5-1.2 0-.9.2-.8.6.1.2.6 1 .9 1.5.6zm9.2-.5c.3.4-.6.6-2.1.3-1.9-.4-2.4-.2-1.8.8.5.9.4 1.1-.4.6-.6-.4-.9-1.2-.6-1.7.8-1.1 4.2-1.2 4.9 0zm10.1.1c.3.5.1 1-.4 1-.6 0-1.1-.5-1.1-1 0-.6.2-1 .4-1 .3 0 .8.4 1.1 1zm6.4 4.5c.9 1.1 1.2 1.7.7 1.3-.5-.4-1.5-.3-2.2.3-.8.7-1.4.7-1.9-.1-.3-.5.1-1 1-1 1.5 0 1.5-.2.1-2.2-.9-1.2-1.6-2.7-1.6-3.3 0-.5.6-.1 1.2 1s1.8 2.9 2.7 4zm13.2-2.8c-1.2 2-1.4 1.4-.5-1.2.4-.9.9-1.4 1.1-1.1.3.2 0 1.3-.6 2.3zm4.4-1.7c.3.5.1 1-.4 1-.6 0-1.1-.5-1.1-1 0-.6.2-1 .4-1 .3 0 .8.4 1.1 1zm4.7.4c.7-.4.8-.2.4.5-.9 1.3-2.6.5-2.5-1.2 0-.9.2-.8.6.1.2.6 1 .9 1.5.6zm9.2-.5c.3.4-.6.6-2.1.3-1.9-.4-2.4-.2-1.8.8.5.9.4 1.1-.4.6-.6-.4-.9-1.2-.6-1.7.8-1.1 4.2-1.2 4.9 0zm10.1.1c.3.5.1 1-.4 1-.6 0-1.1-.5-1.1-1 0-.6.2-1 .4-1 .3 0 .8.4 1.1 1zm6.4 4.5c.9 1.1 1.2 1.7.7 1.3-.5-.4-1.5-.3-2.2.3-.8.7-1.4.7-1.9-.1-.3-.5.1-1 1-1 1.5 0 1.5-.2.1-2.2-.9-1.2-1.6-2.7-1.6-3.3 0-.5.6-.1 1.2 1s1.8 2.9 2.7 4zm13.2-2.8c-1.2 2-1.4 1.4-.5-1.2.4-.9.9-1.4 1.1-1.1.3.2 0 1.3-.6 2.3zm4.4-1.7c.3.5.1 1-.4 1-.6 0-1.1-.5-1.1-1 0-.6.2-1 .4-1 .3 0 .8.4 1.1 1zm4.7.4c.7-.4.8-.2.4.5-.9 1.3-2.6.5-2.5-1.2 0-.9.2-.8.6.1.2.6 1 .9 1.5.6zm9.2-.5c.3.4-.6.6-2.1.3-1.9-.4-2.4-.2-1.8.8.5.9.4 1.1-.4.6-.6-.4-.9-1.2-.6-1.7.8-1.1 4.2-1.2 4.9 0zm10.1.1c.3.5.1 1-.4 1-.6 0-1.1-.5-1.1-1 0-.6.2-1 .4-1 .3 0 .8.4 1.1 1zm6.4 4.5c.9 1.1 1.2 1.7.7 1.3-.5-.4-1.5-.3-2.2.3-.8.7-1.4.7-1.9-.1-.3-.5.1-1 1-1 1.5 0 1.5-.2.1-2.2-.9-1.2-1.6-2.7-1.6-3.3 0-.5.6-.1 1.2 1s1.8 2.9 2.7 4zm13.2-2.8c-1.2 2-1.4 1.4-.5-1.2.4-.9.9-1.4 1.1-1.1.3.2 0 1.3-.6 2.3zm4.4-1.7c.3.5.1 1-.4 1-.6 0-1.1-.5-1.1-1 0-.6.2-1 .4-1 .3 0 .8.4 1.1 1zm4.7.4c.7-.4.8-.2.4.5-.9 1.3-2.6.5-2.5-1.2 0-.9.2-.8.6.1.2.6 1 .9 1.5.6zm9.2-.5c.3.4-.6.6-2.1.3-1.9-.4-2.4-.2-1.8.8.5.9.4 1.1-.4.6-.6-.4-.9-1.2-.6-1.7.8-1.1 4.2-1.2 4.9 0zm10.1.1c.3.5.1 1-.4 1-.6 0-1.1-.5-1.1-1 0-.6.2-1 .4-1 .3 0 .8.4 1.1 1zm6.4 4.5c.9 1.1 1.2 1.7.7 1.3-.5-.4-1.5-.3-2.2.3-.8.7-1.4.7-1.9-.1-.3-.5.1-1 1-1 1.5 0 1.5-.2.1-2.2-.9-1.2-1.6-2.7-1.6-3.3 0-.5.6-.1 1.2 1s1.8 2.9 2.7 4zm13.2-2.8c-1.2 2-1.4 1.4-.5-1.2.4-.9.9-1.4 1.1-1.1.3.2 0 1.3-.6 2.3zm4.4-1.7c.3.5.1 1-.4 1-.6 0-1.1-.5-1.1-1 0-.6.2-1 .4-1 .3 0 .8.4 1.1 1zm4.7.4c.7-.4.8-.2.4.5-.9 1.3-2.6.5-2.5-1.2 0-.9.2-.8.6.1.2.6 1 .9 1.5.6zm9.2-.5c.3.4-.6.6-2.1.3-1.9-.4-2.4-.2-1.8.8.5.9.4 1.1-.4.6-.6-.4-.9-1.2-.6-1.7.8-1.1 4.2-1.2 4.9 0zm10.1.1c.3.5.1 1-.4 1-.6 0-1.1-.5-1.1-1 0-.6.2-1 .4-1 .3 0 .8.4 1.1 1zm6.4 4.5c.9 1.1 1.2 1.7.7 1.3-.5-.4-1.5-.3-2.2.3-.8.7-1.4.7-1.9-.1-.3-.5.1-1 1-1 1.5 0 1.5-.2.1-2.2-.9-1.2-1.6-2.7-1.6-3.3 0-.5.6-.1 1.2 1s1.8 2.9 2.7 4zm13.2-2.8c-1.2 2-1.4 1.4-.5-1.2.4-.9.9-1.4 1.1-1.1.3.2 0 1.3-.6 2.3zm4.4-1.7c.3.5.1 1-.4 1-.6 0-1.1-.5-1.1-1 0-.6.2-1 .4-1 .3 0 .8.4 1.1 1zm4.7.4c.7-.4.8-.2.4.5-.9 1.3-2.6.5-2.5-1.2 0-.9.2-.8.6.1.2.6 1 .9 1.5.6zm9.2-.5c.3.4-.6.6-2.1.3-1.9-.4-2.4-.2-1.8.8.5.9.4 1.1-.4.6-.6-.4-.9-1.2-.6-1.7.8-1.1 4.2-1.2 4.9 0zm10.1.1c.3.5.1 1-.4 1-.6 0-1.1-.5-1.1-1 0-.6.2-1 .4-1 .3 0 .8.4 1.1 1zm6.4 4.5c.9 1.1 1.2 1.7.7 1.3-.5-.4-1.5-.3-2.2.3-.8.7-1.4.7-1.9-.1-.3-.5.1-1 1-1 1.5 0 1.5-.2.1-2.2-.9-1.2-1.6-2.7-1.6-3.3 0-.5.6-.1 1.2 1s1.8 2.9 2.7 4zm23.6-4.5c.3.6-.1.7-.9.4-1.8-.7-2.1-1.4-.7-1.4.6 0 1.3.4 1.6 1zm-305.8 2c.1 1.1-.3 2-.9 2-.7 0-.6.5.1 1.4 1 1.2.9 1.4-.4 1.2-2.6-.4-4.8-4.6-2.4-4.6.5 0 .7.5.3 1.1-.4.7-.1 1 .7.7.8-.3 1.3-1.2 1.1-2.2-.2-.9.1-1.6.5-1.6.5 0 .9.9 1 2zm48 0c.1 1.1-.3 2-.9 2-.7 0-.6.5.1 1.4 1 1.2.9 1.4-.4 1.2-2.6-.4-4.8-4.6-2.4-4.6.5 0 .7.5.3 1.1-.4.7-.1 1 .7.7.8-.3 1.3-1.2 1.1-2.2-.2-.9.1-1.6.5-1.6.5 0 .9.9 1 2zm48 0c.1 1.1-.3 2-.9 2-.7 0-.6.5.1 1.4 1 1.2.9 1.4-.4 1.2-2.6-.4-4.8-4.6-2.4-4.6.5 0 .7.5.3 1.1-.4.7-.1 1 .7.7.8-.3 1.3-1.2 1.1-2.2-.2-.9.1-1.6.5-1.6.5 0 .9.9 1 2zm48 0c.1 1.1-.3 2-.9 2-.7 0-.6.5.1 1.4 1 1.2.9 1.4-.4 1.2-2.6-.4-4.8-4.6-2.4-4.6.5 0 .7.5.3 1.1-.4.7-.1 1 .7.7.8-.3 1.3-1.2 1.1-2.2-.2-.9.1-1.6.5-1.6.5 0 .9.9 1 2zm48 0c.1 1.1-.3 2-.9 2-.7 0-.6.5.1 1.4 1 1.2.9 1.4-.4 1.2-2.6-.4-4.8-4.6-2.4-4.6.5 0 .7.5.3 1.1-.4.7-.1 1 .7.7.8-.3 1.3-1.2 1.1-2.2-.2-.9.1-1.6.5-1.6.5 0 .9.9 1 2zm48 0c.1 1.1-.3 2-.9 2-.7 0-.6.5.1 1.4 1 1.2.9 1.4-.4 1.2-2.6-.4-4.8-4.6-2.4-4.6.5 0 .7.5.3 1.1-.4.7-.1 1 .7.7.8-.3 1.3-1.2 1.1-2.2-.2-.9.1-1.6.5-1.6.5 0 .9.9 1 2zm52.8-1c-.2.4.7 1.2 2.1 1.9 2.2 1 2.4 1.4 1.3 2.7-.8.9-1.6 1.1-2.2.5-.5-.5-1.5-.7-2.2-.5-.7.3-1.6.1-2-.5-.4-.8-1.2-.6-2.2.5-1.5 1.5-1.8 1.5-3-.2-1.6-2.2-1.7-3.4-.2-3.4.5 0 .8.4.4.9-.3.6.4.9 1.5.8 1.1-.1 2-.8 2.1-1.7 0-.9.4-.6.9.7 1.1 2.6 2.7 3.1 2.7.8 0-.8-.4-1.5-.9-1.5-.4 0-.8-.4-.8-.8 0-.5.7-.9 1.5-.9s1.2.3 1 .7zm-313.7 2.5c-.6 1.4-1.3 2.3-1.6 2-.3-.3-1.1 0-1.9.6-1 .9-1.3.8-1.3-.1 0-.7-.7-1-1.6-.6-1.5.6-1.5.4-.3-1 .8-1 1.5-1.2 1.7-.5.2.6.8 1.1 1.3 1.1.4 0 .6-.7.3-1.5-.4-.8-.1-1.5.6-1.5.6 0 .8.4.5 1-.3.5-.2 1 .3 1 .6 0 1.2-.7 1.6-1.5.3-.8.8-1.5 1-1.5.3 0 0 1.1-.6 2.5zm40.1.1c-1.4 1.7.2 1.9 1.9.2.9-.9 1.2-.9 1.2 0 0 .7.4 1.2 1 1.2.5 0 .7-.7.4-1.5-.4-.8-.1-1.5.6-1.5.6 0 .8.4.5 1-1.1 1.7.7 1.1 2.2-.8 1.2-1.5 1.2-1.3.2 1.1-.7 1.5-1.4 2.5-1.7 2.2-.3-.3-1.1 0-1.9.6-.9.8-1.3.8-1.3.1 0-.8-3.2-1-5.7-.3-1.1.3-1.8-.1-1.8-1.1 0-.6-.6-1.3-1.4-1.6-.8-.3-1.1 0-.7.6 1 1.7-.8 2.1-2.8.6-1.1-.7-1.6-1.7-1.1-2.1.4-.5 1-.2 1.2.5.4 1 .8 1 1.9.1 1-.9 1.7-.9 2.8 0 1 .9 1.6.8 2.6-.4.7-.8 1.6-1.2 2.2-.9.5.3.4 1.2-.3 2zm48 0c-1.4 1.7.2 1.9 1.9.2.9-.9 1.2-.9 1.2 0 0 .7.4 1.2 1 1.2.5 0 .7-.7.4-1.5-.4-.8-.1-1.5.6-1.5.6 0 .8.4.5 1-1.1 1.7.7 1.1 2.2-.8 1.2-1.5 1.2-1.3.2 1.1-.7 1.5-1.4 2.5-1.7 2.2-.3-.3-1.1 0-1.9.6-.9.8-1.3.8-1.3.1 0-.8-3.2-1-5.7-.3-1.1.3-1.8-.1-1.8-1.1 0-.6-.6-1.3-1.4-1.6-.8-.3-1.1 0-.7.6 1 1.7-.8 2.1-2.8.6-1.1-.7-1.6-1.7-1.1-2.1.4-.5 1-.2 1.2.5.4 1 .8 1 1.9.1 1-.9 1.7-.9 2.8 0 1 .9 1.6.8 2.6-.4.7-.8 1.6-1.2 2.2-.9.5.3.4 1.2-.3 2zm48 0c-1.4 1.7.2 1.9 1.9.2.9-.9 1.2-.9 1.2 0 0 .7.4 1.2 1 1.2.5 0 .7-.7.4-1.5-.4-.8-.1-1.5.6-1.5.6 0 .8.4.5 1-1.1 1.7.7 1.1 2.2-.8 1.2-1.5 1.2-1.3.2 1.1-.7 1.5-1.4 2.5-1.7 2.2-.3-.3-1.1 0-1.9.6-.9.8-1.3.8-1.3.1 0-.8-3.2-1-5.7-.3-1.1.3-1.8-.1-1.8-1.1 0-.6-.6-1.3-1.4-1.6-.8-.3-1.1 0-.7.6 1 1.7-.8 2.1-2.8.6-1.1-.7-1.6-1.7-1.1-2.1.4-.5 1-.2 1.2.5.4 1 .8 1 1.9.1 1-.9 1.7-.9 2.8 0 1 .9 1.6.8 2.6-.4.7-.8 1.6-1.2 2.2-.9.5.3.4 1.2-.3 2zm48 0c-1.4 1.7.2 1.9 1.9.2.9-.9 1.2-.9 1.2 0 0 .7.4 1.2 1 1.2.5 0 .7-.7.4-1.5-.4-.8-.1-1.5.6-1.5.6 0 .8.4.5 1-1.1 1.7.7 1.1 2.2-.8 1.2-1.5 1.2-1.3.2 1.1-.7 1.5-1.4 2.5-1.7 2.2-.3-.3-1.1 0-1.9.6-.9.8-1.3.8-1.3.1 0-.8-3.2-1-5.7-.3-1.1.3-1.8-.1-1.8-1.1 0-.6-.6-1.3-1.4-1.6-.8-.3-1.1 0-.7.6 1 1.7-.8 2.1-2.8.6-1.1-.7-1.6-1.7-1.1-2.1.4-.5 1-.2 1.2.5.4 1 .8 1 1.9.1 1-.9 1.7-.9 2.8 0 1 .9 1.6.8 2.6-.4.7-.8 1.6-1.2 2.2-.9.5.3.4 1.2-.3 2zm48 0c-1.4 1.7.2 1.9 1.9.2.9-.9 1.2-.9 1.2 0 0 .7.4 1.2 1 1.2.5 0 .7-.7.4-1.5-.4-.8-.1-1.5.6-1.5.6 0 .8.4.5 1-1.1 1.7.7 1.1 2.2-.8 1.2-1.5 1.2-1.3.2 1.1-.7 1.5-1.4 2.5-1.7 2.2-.3-.3-1.1 0-1.9.6-.9.8-1.3.8-1.3.1 0-.8-3.2-1-5.7-.3-1.1.3-1.8-.1-1.8-1.1 0-.6-.6-1.3-1.4-1.6-.8-.3-1.1 0-.7.6 1 1.7-.8 2.1-2.8.6-1.1-.7-1.6-1.7-1.1-2.1.4-.5 1-.2 1.2.5.4 1 .8 1 1.9.1 1-.9 1.7-.9 2.8 0 1 .9 1.6.8 2.6-.4.7-.8 1.6-1.2 2.2-.9.5.3.4 1.2-.3 2zm48 0c-1.4 1.7.2 1.9 1.9.2.9-.9 1.2-.9 1.2 0 0 .7.4 1.2 1 1.2.5 0 .7-.7.4-1.5-.4-.8-.1-1.5.6-1.5.6 0 .8.4.5 1-1.1 1.7.7 1.1 2.2-.8 1.2-1.5 1.2-1.3.2 1.1-.7 1.5-1.4 2.5-1.7 2.2-.3-.3-1.1 0-1.9.6-.9.8-1.3.8-1.3.1 0-.8-3.2-1-5.7-.3-1.1.3-1.8-.1-1.8-1.1 0-.6-.6-1.3-1.4-1.6-.8-.3-1.1 0-.7.6 1 1.7-.8 2.1-2.8.6-1.1-.7-1.6-1.7-1.1-2.1.4-.5 1-.2 1.2.5.4 1 .8 1 1.9.1 1-.9 1.7-.9 2.8 0 1 .9 1.6.8 2.6-.4.7-.8 1.6-1.2 2.2-.9.5.3.4 1.2-.3 2zM442.9 78.3c.6.8.7 1.8.3 2.3-.4.5-.3.5.2.1 1.6-1.3 1.5-3.7-.1-3.7-1.2 0-1.3.3-.4 1.3zM443.3 87.5c0 .8.4 1.5.9 1.5.4 0 .8-.4.8-.9 0-.6-.4-1.2-.8-1.5-.5-.3-.9.1-.9.9zM442.9 102.3c.6.8.7 1.8.3 2.3-.4.5-.3.5.2.1 1.6-1.3 1.5-3.7-.1-3.7-1.2 0-1.3.3-.4 1.3zM443.3 111.5c0 .8.4 1.5.9 1.5.4 0 .8-.4.8-.9 0-.6-.4-1.2-.8-1.5-.5-.3-.9.1-.9.9zM442 125.4c0 .2.6.9 1.3 1.5 1 .8 1.4.7 1.4-.4 0-.8-.6-1.5-1.4-1.5-.7 0-1.3.2-1.3.4zM442.9 134.3c.6.8.7 1.8.3 2.3-.4.5-.3.5.2.1 1.6-1.3 1.5-3.7-.1-3.7-1.2 0-1.3.3-.4 1.3zM443.3 143.5c0 .8.4 1.5.9 1.5.4 0 .8-.4.8-.9 0-.6-.4-1.2-.8-1.5-.5-.3-.9.1-.9.9zM442.9 158.3c.6.8.7 1.8.3 2.3-.4.5-.3.5.2.1 1.6-1.3 1.5-3.7-.1-3.7-1.2 0-1.3.3-.4 1.3zM443.3 167.5c0 .8.4 1.5.9 1.5.4 0 .8-.4.8-.9 0-.6-.4-1.2-.8-1.5-.5-.3-.9.1-.9.9zM442.9 182.3c.6.8.7 1.8.3 2.3-.4.5-.3.5.2.1 1.6-1.3 1.5-3.7-.1-3.7-1.2 0-1.3.3-.4 1.3zM468 232c-.9.6-1 1-.3 1 .6 0 1.5-.5 1.8-1 .8-1.2.4-1.2-1.5 0zM461 241.5c-1.8 1.9-2 2.5-.8 2.5 1.9 0 5.2-3.6 4-4.4-.5-.3-2 .6-3.2 1.9zm3-1.1c0 .2-.8 1-1.7 1.7-1.6 1.3-1.7 1.2-.4-.4 1.3-1.6 2.1-2.1 2.1-1.3zM442.9 310.3c.6.8.7 1.8.3 2.3-.4.5-.3.5.2.1 1.6-1.3 1.5-3.7-.1-3.7-1.2 0-1.3.3-.4 1.3zM443.3 319.5c0 .8.4 1.5.9 1.5.4 0 .8-.4.8-.9 0-.6-.4-1.2-.8-1.5-.5-.3-.9.1-.9.9zM442.9 334.3c.6.8.7 1.8.3 2.3-.4.5-.3.5.2.1 1.6-1.3 1.5-3.7-.1-3.7-1.2 0-1.3.3-.4 1.3zM443.3 343.5c0 .8.4 1.5.9 1.5.4 0 .8-.4.8-.9 0-.6-.4-1.2-.8-1.5-.5-.3-.9.1-.9.9zM442.9 358.3c.6.8.7 1.8.3 2.3-.4.5-.3.5.2.1 1.6-1.3 1.5-3.7-.1-3.7-1.2 0-1.3.3-.4 1.3zM443.3 367.5c0 .8.4 1.5.9 1.5.4 0 .8-.4.8-.9 0-.6-.4-1.2-.8-1.5-.5-.3-.9.1-.9.9zM442 381.4c0 .2.6.9 1.3 1.5 1 .8 1.4.7 1.4-.4 0-.8-.6-1.5-1.4-1.5-.7 0-1.3.2-1.3.4zM442.9 390.3c.6.8.7 1.8.3 2.3-.4.5-.3.5.2.1 1.6-1.3 1.5-3.7-.1-3.7-1.2 0-1.3.3-.4 1.3zM443.3 399.5c0 .8.4 1.5.9 1.5.4 0 .8-.4.8-.9 0-.6-.4-1.2-.8-1.5-.5-.3-.9.1-.9.9zM442.9 414.3c.6.8.7 1.8.3 2.3-.4.5-.3.5.2.1 1.6-1.3 1.5-3.7-.1-3.7-1.2 0-1.3.3-.4 1.3zM443.3 423.5c0 .8.4 1.5.9 1.5.4 0 .8-.4.8-.9 0-.6-.4-1.2-.8-1.5-.5-.3-.9.1-.9.9zM442.9 438.3c.6.8.7 1.8.3 2.3-.4.5-.3.5.2.1 1.6-1.3 1.5-3.7-.1-3.7-1.2 0-1.3.3-.4 1.3zM443.3 447.5c0 .8.4 1.5.9 1.5.4 0 .8-.4.8-.9 0-.6-.4-1.2-.8-1.5-.5-.3-.9.1-.9.9zM442.9 462.3c.6.8.7 1.8.3 2.3-.4.5-.3.5.2.1 1.6-1.3 1.5-3.7-.1-3.7-1.2 0-1.3.3-.4 1.3zM443.3 471.5c0 .8.4 1.5.9 1.5.4 0 .8-.4.8-.9 0-.6-.4-1.2-.8-1.5-.5-.3-.9.1-.9.9zM442.9 486.3c.6.8.7 1.8.3 2.3-.4.5-.3.5.2.1 1.6-1.3 1.5-3.7-.1-3.7-1.2 0-1.3.3-.4 1.3zM443 491.4c0 .9 0 1.8 0 2.1 0 .3.3.5.7.5 1 .1 1.2-2.9.2-3.6-.5-.3-.9.2-.9 1zM91 504.1c0 .5-.6.7-1.2.3-.7-.4-1-.3-.5.1 1.2 1.4 4.4 1.3 4.4-.2 0-.7-.6-1.3-1.4-1.3-.7 0-1.3.5-1.3 1.1zM97.9 504.7c-1.3 1.6-1.2 1.7.4.4.9-.7 1.7-1.5 1.7-1.7 0-.8-.8-.3-2.1 1.3zM434.1 505.4c-1 1.2-.8 1.3.8.9 1.2-.3 1.8-.9 1.5-1.4-.7-1.2-1-1.1-2.3.5zM421 504.4c0 .2.6.9 1.4 1.5 1.1.9 1.6.9 2.2 0 .4-.8.3-.9-.4-.5s-1.2.2-1.2-.3c0-.6-.4-1.1-1-1.1-.5 0-1 .2-1 .4zM145.4 505.2l-1.9 2.3 2.3-1.9c1.2-1.1 2.2-2.1 2.2-2.3 0-.8-.8-.2-2.6 1.9zM193.4 505.2l-1.9 2.3 2.3-1.9c1.2-1.1 2.2-2.1 2.2-2.3 0-.8-.8-.2-2.6 1.9zM241.4 505.2l-1.9 2.3 2.3-1.9c1.2-1.1 2.2-2.1 2.2-2.3 0-.8-.8-.2-2.6 1.9zM289.4 505.2l-1.9 2.3 2.3-1.9c1.2-1.1 2.2-2.1 2.2-2.3 0-.8-.8-.2-2.6 1.9zM337.4 505.2l-1.9 2.3 2.3-1.9c1.2-1.1 2.2-2.1 2.2-2.3 0-.8-.8-.2-2.6 1.9zM385.4 505.2l-1.9 2.3 2.3-1.9c1.2-1.1 2.2-2.1 2.2-2.3 0-.8-.8-.2-2.6 1.9zM406 31.9c0 .5.8 1.5 1.8 2.2 1.5 1.2 1.6 1.2.5-.2-.7-.9-1-1.9-.6-2.2.3-.4.1-.7-.5-.7-.7 0-1.2.4-1.2.9zM405.4 34.8c.3.6.2 1.3-.4 1.7-.6.4-.7 1.2-.3 1.8.8 1.2.9 1.7 1.2 3.7 0 .5.6 1 1.2 1 .5 0 .7-.5.4-1-.3-.6 0-1 .7-1 1 0 1-.2-.1-.9-1.2-.8-1.2-1 0-1.4.8-.2.6-.3-.4-.1-1.3.2-1.6-.2-1.2-1.6.3-1 0-2.2-.6-2.6-.7-.4-.9-.3-.5.4zM409.6 41.8c-.3.5.1.9.9.9s1.2-.4.9-.9c-.3-.4-.7-.8-.9-.8-.2 0-.6.4-.9.8zM409.7 49.7c-.9.9-.9 4.1.1 4.6.4.3.7-.8.7-2.4 0-1.6 0-2.9-.1-2.9 0 0-.4.3-.7.7zM443.5 68c-.3.5-.1 1 .4 1 .6 0 1.1-.5 1.1-1 0-.6-.2-1-.4-1-.3 0-.8.4-1.1 1zM447.6 93.8c-.3.5.1.9.9.9s1.2-.4.9-.9c-.3-.4-.7-.8-.9-.8-.2 0-.6.4-.9.8zM449 97.9c0 .6.4 1.3 1 1.6.6.3.7-.1.4-.9-.7-1.8-1.4-2.1-1.4-.7zM449 121.9c0 .6.4 1.3 1 1.6.6.3.7-.1.4-.9-.7-1.8-1.4-2.1-1.4-.7zM449 137.9c0 .6.4 1.3 1 1.6.6.3.7-.1.4-.9-.7-1.8-1.4-2.1-1.4-.7zM449 161.9c0 .6.4 1.3 1 1.6.6.3.7-.1.4-.9-.7-1.8-1.4-2.1-1.4-.7zM449 185.9c0 .6.4 1.3 1 1.6.6.3.7-.1.4-.9-.7-1.8-1.4-2.1-1.4-.7zM473 220c0 .5.5 1 1.1 1 .5 0 .7-.5.4-1-.3-.6-.8-1-1.1-1-.2 0-.4.4-.4 1zM473 234.9c0 .7-.4 1-.8.7-.4-.2-.9.4-.9 1.5-.1 1 .3 1.9.9 1.9.6 0 .8-.3.5-.7-.4-.3-.2-1.2.5-2 .6-.7.8-1.6.4-2-.3-.3-.6-.1-.6.6zM466 243.8c0 .5.7.9 1.5.9s1.2-.4.9-.9c-.3-.4-.9-.8-1.5-.8-.5 0-.9.4-.9.8zM455.9 247.3c-.1.4-.2 1-.3 1.4-.1.5-.5 1.4-.9 2-.5.8-.3 1.3.4 1.3s2.2.9 3.4 2c1.7 1.6 2.2 1.7 2.2.6 0-.8-.4-1.3-.8-1-.9.5-2.2-1.4-2.6-4-.4-2.1-1.2-3.4-1.4-2.3zM451.8 257.7c.8.3.5 1-1 2.2-1.2 1-2.2 2.8-2.3 4-.1 1.1 0 1.9.3 1.6.3-.2 1.4 0 2.6.6 1.9.9 2 .9.3-.4-1.5-1.3-1.5-1.6-.2-2.7.8-.7 1.5-1.9 1.5-2.6 0-.8.6-1.4 1.3-1.4.8 0 .7-.4-.3-1-.8-.5-1.9-.9-2.5-.9-.5 0-.4.3.3.6zm-.3 4.2c-.3.6-1.1 1.1-1.7 1.1-.6 0-.6-.6.2-1.5 1.4-1.7 2.6-1.3 1.5.4zM444.8 271.7c-.7.9-.7 1.3 0 1.3 1.3 0 1 3.8-.7 6.8-1.4 2.6-.7 4.2 1.1 2.4.8-.8 1.5-.9 2.5-.1.8.7 1.3.8 1.3.1 0-.5-.7-1.2-1.5-1.6-.8-.3-1.5-1-1.5-1.6 0-.6.6-.8 1.3-.4 1 .6 1 .4 0-.7-1.9-2-1.6-3.3.5-1.8 1.4 1.1 1.5 1.1.5-.1-1.8-1.9-1.6-3.5.1-2.1 1.1.9 1.6.9 2.2 0 .4-.7.3-.9-.4-.5-.6.3-1.3.2-1.7-.3-.3-.5.2-1.4 1.2-1.9 1.4-.8 1.2-1-1.1-.9-1.5.1-3.2.8-3.8 1.4zM449 289.9c0 .6.4 1.3 1 1.6.6.3.7-.1.4-.9-.7-1.8-1.4-2.1-1.4-.7zM443.3 295.5c0 .8.4 1.5.9 1.5.4 0 .8-.4.8-.9 0-.6-.4-1.2-.8-1.5-.5-.3-.9.1-.9.9zM449 313.9c0 .6.4 1.3 1 1.6.6.3.7-.1.4-.9-.7-1.8-1.4-2.1-1.4-.7zM449 329.9c0 .6.4 1.3 1 1.6.6.3.7-.1.4-.9-.7-1.8-1.4-2.1-1.4-.7zM449 353.9c0 .6.4 1.3 1 1.6.6.3.7-.1.4-.9-.7-1.8-1.4-2.1-1.4-.7zM449 377.9c0 .6.4 1.3 1 1.6.6.3.7-.1.4-.9-.7-1.8-1.4-2.1-1.4-.7zM449 393.9c0 .6.4 1.3 1 1.6.6.3.7-.1.4-.9-.7-1.8-1.4-2.1-1.4-.7zM449 417.9c0 .6.4 1.3 1 1.6.6.3.7-.1.4-.9-.7-1.8-1.4-2.1-1.4-.7zM449 441.9c0 .6.4 1.3 1 1.6.6.3.7-.1.4-.9-.7-1.8-1.4-2.1-1.4-.7zM449 457.9c0 .6.4 1.3 1 1.6.6.3.7-.1.4-.9-.7-1.8-1.4-2.1-1.4-.7zM45.5 463.1c-.4.6-.5 1.2-.2 1.5.2.3.7-.2 1-1.1.7-1.7.1-2-.8-.4zM51.5 470.9c-.3.5-.2 1.2.3 1.5.5.3.9-.1.9-.9 0-1.7-.3-1.9-1.2-.6zM69.7 471.3c-.3.8.1 1.4.8 1.4.7 0 1.1-.6.8-1.4-.3-.7-.6-1.3-.8-1.3-.2 0-.5.6-.8 1.3zM59 472.1c0 .5.5.7 1 .4.6-.3 1-.8 1-1.1 0-.2-.4-.4-1-.4-.5 0-1 .5-1 1.1zM449 481.9c0 .6.4 1.3 1 1.6.6.3.7-.1.4-.9-.7-1.8-1.4-2.1-1.4-.7zM444.9 499.7c-.7 4.4-.6 6.3.1 6.8.5.3 1.2 0 1.6-.6.4-.7.3-.9-.4-.5-1.3.8-1.3-3.4.1-5.2.6-.8.6-1.2-.2-1.2-.6 0-1.2.3-1.2.7zM447.5 501c-.3.5-.2 1.8.4 2.7.7 1.4.9 1.2.8-1-.2-3-.3-3.1-1.2-1.7zM84 502.9c0 .6.4 1.3 1 1.6.6.3.7-.1.4-.9-.7-1.8-1.4-2.1-1.4-.7zM101 510c0 .5.5 1 1.1 1 .5 0 .7-.5.4-1-.3-.6-.8-1-1.1-1-.2 0-.4.4-.4 1zM117.5 509.9c-.3.5-.2 1.2.3 1.5.5.3.9-.1.9-.9 0-1.7-.3-1.9-1.2-.6zM122.8 509.7c.7.3 1.6.2 1.9-.1.4-.3-.2-.6-1.3-.5-1.1 0-1.4.3-.6.6zM129.5 510c-.3.5-.1 1 .4 1 .6 0 1.1-.5 1.1-1 0-.6-.2-1-.4-1-.3 0-.8.4-1.1 1zM134.8 509.7c.7.3 1.6.2 1.9-.1.4-.3-.2-.6-1.3-.5-1.1 0-1.4.3-.6.6zM149 510c0 .5.5 1 1.1 1 .5 0 .7-.5.4-1-.3-.6-.8-1-1.1-1-.2 0-.4.4-.4 1zM165.5 509.9c-.3.5-.2 1.2.3 1.5.5.3.9-.1.9-.9 0-1.7-.3-1.9-1.2-.6zM170.8 509.7c.7.3 1.6.2 1.9-.1.4-.3-.2-.6-1.3-.5-1.1 0-1.4.3-.6.6zM177.5 510c-.3.5-.1 1 .4 1 .6 0 1.1-.5 1.1-1 0-.6-.2-1-.4-1-.3 0-.8.4-1.1 1zM182.8 509.7c.7.3 1.6.2 1.9-.1.4-.3-.2-.6-1.3-.5-1.1 0-1.4.3-.6.6zM197 510c0 .5.5 1 1.1 1 .5 0 .7-.5.4-1-.3-.6-.8-1-1.1-1-.2 0-.4.4-.4 1zM213.5 509.9c-.3.5-.2 1.2.3 1.5.5.3.9-.1.9-.9 0-1.7-.3-1.9-1.2-.6zM218.8 509.7c.7.3 1.6.2 1.9-.1.4-.3-.2-.6-1.3-.5-1.1 0-1.4.3-.6.6zM225.5 510c-.3.5-.1 1 .4 1 .6 0 1.1-.5 1.1-1 0-.6-.2-1-.4-1-.3 0-.8.4-1.1 1zM230.8 509.7c.7.3 1.6.2 1.9-.1.4-.3-.2-.6-1.3-.5-1.1 0-1.4.3-.6.6zM245 510c0 .5.5 1 1.1 1 .5 0 .7-.5.4-1-.3-.6-.8-1-1.1-1-.2 0-.4.4-.4 1zM261.5 509.9c-.3.5-.2 1.2.3 1.5.5.3.9-.1.9-.9 0-1.7-.3-1.9-1.2-.6zM266.8 509.7c.7.3 1.6.2 1.9-.1.4-.3-.2-.6-1.3-.5-1.1 0-1.4.3-.6.6zM273.5 510c-.3.5-.1 1 .4 1 .6 0 1.1-.5 1.1-1 0-.6-.2-1-.4-1-.3 0-.8.4-1.1 1zM278.8 509.7c.7.3 1.6.2 1.9-.1.4-.3-.2-.6-1.3-.5-1.1 0-1.4.3-.6.6zM293 510c0 .5.5 1 1.1 1 .5 0 .7-.5.4-1-.3-.6-.8-1-1.1-1-.2 0-.4.4-.4 1zM309.5 509.9c-.3.5-.2 1.2.3 1.5.5.3.9-.1.9-.9 0-1.7-.3-1.9-1.2-.6zM314.8 509.7c.7.3 1.6.2 1.9-.1.4-.3-.2-.6-1.3-.5-1.1 0-1.4.3-.6.6zM321.5 510c-.3.5-.1 1 .4 1 .6 0 1.1-.5 1.1-1 0-.6-.2-1-.4-1-.3 0-.8.4-1.1 1zM326.8 509.7c.7.3 1.6.2 1.9-.1.4-.3-.2-.6-1.3-.5-1.1 0-1.4.3-.6.6zM341 510c0 .5.5 1 1.1 1 .5 0 .7-.5.4-1-.3-.6-.8-1-1.1-1-.2 0-.4.4-.4 1zM357.5 509.9c-.3.5-.2 1.2.3 1.5.5.3.9-.1.9-.9 0-1.7-.3-1.9-1.2-.6zM362.8 509.7c.7.3 1.6.2 1.9-.1.4-.3-.2-.6-1.3-.5-1.1 0-1.4.3-.6.6zM369.5 510c-.3.5-.1 1 .4 1 .6 0 1.1-.5 1.1-1 0-.6-.2-1-.4-1-.3 0-.8.4-1.1 1zM374.8 509.7c.7.3 1.6.2 1.9-.1.4-.3-.2-.6-1.3-.5-1.1 0-1.4.3-.6.6zM389 510c0 .5.5 1 1.1 1 .5 0 .7-.5.4-1-.3-.6-.8-1-1.1-1-.2 0-.4.4-.4 1zM405.5 509.9c-.3.5-.2 1.2.3 1.5.5.3.9-.1.9-.9 0-1.7-.3-1.9-1.2-.6zM410.8 509.7c.7.3 1.6.2 1.9-.1.4-.3-.2-.6-1.3-.5-1.1 0-1.4.3-.6.6zM419 509.4c0 .2.9.6 2 .9 1.1.3 1.8.1 1.4-.4-.5-.9-3.4-1.3-3.4-.5z"/></svg>