<svg xmlns="http://www.w3.org/2000/svg" viewBox="0 0 28.32 28.32"><defs><style>.cls-1{fill:#0071bb;}.cls-2{fill:#fff;}</style></defs><title>icon-software</title><g id="Слой_2" data-name="Слой 2"><g id="Capa_2" data-name="Capa 2"><path class="cls-1" d="M14.16,28.32A14.16,14.16,0,1,1,28.32,14.16,14.17,14.17,0,0,1,14.16,28.32Zm0-28.07A13.91,13.91,0,1,0,28.07,14.16,13.93,13.93,0,0,0,14.16.25Z"/><path class="cls-1" d="M26.85,14.16A12.69,12.69,0,1,1,14.16,1.47,12.69,12.69,0,0,1,26.85,14.16Z"/><path class="cls-2" d="M19.05,8.55a1,1,0,0,1,1,1v5.25a1,1,0,0,1-1,1H9.27a1,1,0,0,1-1-1V9.57a1,1,0,0,1,1-1h9.78m0-1H9.27a2,2,0,0,0-2,2v5.25a2,2,0,0,0,2,2h9.78a2,2,0,0,0,2-2V9.57a2,2,0,0,0-2-2Z"/><polygon class="cls-2" points="22.59 20.78 5.72 20.78 7.24 18.12 21.08 18.12 22.59 20.78"/></g></g></svg>