<svg xmlns="http://www.w3.org/2000/svg" viewBox="0 0 28.32 28.32"><defs><style>.cls-1{fill:#0071bb;}.cls-2{fill:#fff;}</style></defs><title>icon-exp</title><g id="Слой_2" data-name="Слой 2"><g id="Capa_2" data-name="Capa 2"><path class="cls-1" d="M14.16,28.32A14.16,14.16,0,1,1,28.32,14.16,14.17,14.17,0,0,1,14.16,28.32Zm0-28.07A13.91,13.91,0,1,0,28.07,14.16,13.93,13.93,0,0,0,14.16.25Z"/><path class="cls-1" d="M26.85,14.16A12.69,12.69,0,1,1,14.16,1.47,12.69,12.69,0,0,1,26.85,14.16Z"/><path class="cls-2" d="M18.05,10.67a3.89,3.89,0,0,0-7.78,0H7V21.35H21.32V10.67ZM14.16,8.06A2.82,2.82,0,0,1,17,10.67h-5.6A2.82,2.82,0,0,1,14.16,8.06Z"/></g></g></svg>