<svg xmlns="http://www.w3.org/2000/svg" viewBox="0 0 28.32 28.32"><defs><style>.cls-1{fill:#0071bb;}.cls-2{fill:#fff;}</style></defs><title>icon-contact</title><g id="Слой_2" data-name="Слой 2"><g id="Capa_2" data-name="Capa 2"><path class="cls-1" d="M14.16,28.32A14.16,14.16,0,1,1,28.32,14.16,14.17,14.17,0,0,1,14.16,28.32Zm0-28.07A13.91,13.91,0,1,0,28.07,14.16,13.93,13.93,0,0,0,14.16.25Z"/><path class="cls-1" d="M26.85,14.16A12.69,12.69,0,1,1,14.16,1.47,12.69,12.69,0,0,1,26.85,14.16Z"/><path class="cls-2" d="M21.93,18.55a.73.73,0,0,1-.22.64l-2.14,2.13a1.36,1.36,0,0,1-.38.27,1.45,1.45,0,0,1-.46.15h-.31a7,7,0,0,1-1-.1,7.23,7.23,0,0,1-1.68-.52,13.64,13.64,0,0,1-2.24-1.23,16.27,16.27,0,0,1-2.67-2.25A18.83,18.83,0,0,1,9,15.53a15.37,15.37,0,0,1-1.19-1.88,9.74,9.74,0,0,1-.67-1.56,7.91,7.91,0,0,1-.31-1.2,4.33,4.33,0,0,1-.06-.8c0-.19,0-.3,0-.32a1.45,1.45,0,0,1,.15-.46,1.09,1.09,0,0,1,.27-.38L9.32,6.79a.7.7,0,0,1,.52-.22.61.61,0,0,1,.37.12,1.31,1.31,0,0,1,.27.3l1.72,3.26a.77.77,0,0,1,.08.56,1,1,0,0,1-.27.52l-.79.79a.29.29,0,0,0-.06.1.74.74,0,0,0,0,.12,2.8,2.8,0,0,0,.29.78,8.76,8.76,0,0,0,.59.94,10.77,10.77,0,0,0,1.15,1.27,10,10,0,0,0,1.28,1.15,7.49,7.49,0,0,0,.94.61,2.17,2.17,0,0,0,.58.23l.2,0,.11,0,.1-.06.92-.93a1,1,0,0,1,.68-.26.78.78,0,0,1,.43.1h0L21.53,18A.82.82,0,0,1,21.93,18.55Z"/></g></g></svg>