<?xml version="1.0" standalone="no"?>
<!DOCTYPE svg PUBLIC "-//W3C//DTD SVG 20010904//EN"
 "http://www.w3.org/TR/2001/REC-SVG-20010904/DTD/svg10.dtd">
<svg version="1.0" xmlns="http://www.w3.org/2000/svg"
 width="512.000000pt" height="512.000000pt" viewBox="0 0 512.000000 512.000000"
 preserveAspectRatio="xMidYMid meet">
<metadata>
Created by potrace 1.11, written by Peter Selinger 2001-2013
</metadata>
<g transform="translate(0.000000,512.000000) scale(0.100000,-0.100000)"
fill="#000000" stroke="none">
<path d="M759 5081 c-38 -25 -57 -60 -64 -117 -1 -13 -4 -27 -7 -29 -3 -3 -50
-6 -104 -6 -128 0 -149 -5 -162 -34 -14 -31 -15 -4352 -1 -4361 5 -3 7 -9 5
-13 -4 -6 9 -10 51 -13 12 -1 14 -38 3 -38 -4 0 -7 -7 -7 -16 0 -15 1 -15 12
0 16 21 27 9 14 -15 -7 -15 -6 -17 6 -13 8 3 12 10 9 15 -3 5 1 9 8 9 11 0 11
2 0 9 -10 6 -9 12 5 27 10 11 14 14 9 7 -4 -7 -5 -20 -2 -29 5 -13 9 -14 21
-4 10 9 15 9 15 1 0 -10 -13 -15 -33 -12 -4 0 -7 -4 -7 -9 0 -6 5 -10 11 -10
5 0 8 -4 5 -8 -2 -4 5 -9 16 -9 20 -2 20 -1 2 13 -18 15 -18 15 1 9 11 -4 25
-8 30 -9 6 -1 20 -7 32 -14 17 -9 22 -9 26 2 7 17 -8 42 -17 28 -3 -6 -3 -12
1 -15 5 -2 1 -2 -7 1 -8 2 -21 5 -29 6 -8 2 -15 9 -17 17 -1 8 -4 21 -6 29 -3
8 -3 12 -1 7 3 -4 9 -5 13 -2 5 3 12 0 16 -6 4 -8 3 -9 -4 -5 -7 4 -12 3 -12
-2 0 -17 13 -22 28 -9 11 8 14 9 9 0 -9 -14 32 -14 50 0 9 6 13 6 13 -2 0 -6
-5 -11 -11 -11 -6 0 -9 -7 -6 -15 4 -8 2 -17 -3 -20 -6 -4 -10 -11 -10 -16 0
-6 7 -3 16 5 8 9 12 21 8 27 -4 7 -3 9 3 6 15 -9 23 16 12 34 -5 8 -9 19 -9
24 0 6 9 -5 20 -23 20 -32 29 -61 10 -32 -5 8 -10 11 -10 5 0 -5 9 -21 20 -35
15 -18 18 -20 13 -6 -4 12 -3 17 4 13 6 -4 16 0 23 8 10 12 8 13 -9 10 -12 -2
-21 0 -21 6 0 5 5 9 11 9 5 0 7 6 3 13 -6 9 -5 9 8 0 8 -7 17 -11 19 -8 5 5 8
-49 9 -185 1 -93 15 -140 41 -140 16 0 39 -27 31 -35 -4 -5 -2 -5 5 -1 7 4 10
13 7 21 -6 14 20 16 31 2 3 -4 2 -5 -2 -2 -3 3 -12 -7 -19 -21 -11 -20 -11
-30 -2 -47 7 -12 11 -26 9 -32 -1 -5 1 -6 6 -2 4 5 8 14 8 19 0 6 6 13 14 16
10 3 12 0 7 -14 -6 -15 -4 -16 5 -7 9 9 18 8 38 -4 l26 -15 -24 20 -24 19 26
0 c17 0 24 -4 20 -11 -4 -6 0 -5 9 2 14 11 19 9 33 -10 11 -14 15 -17 12 -6
-4 10 -2 20 3 23 6 4 10 1 10 -4 0 -6 4 -11 10 -11 5 0 9 3 8 8 -3 10 25 52
35 52 4 0 0 -12 -9 -26 -15 -22 -15 -27 -3 -34 9 -6 23 -3 38 7 22 14 24 14
18 -1 -4 -10 -3 -15 3 -11 18 11 12 38 -7 30 -31 -12 -54 -14 -48 -4 4 5 13 9
20 9 9 0 12 6 9 15 -4 8 -1 15 6 15 6 0 8 -4 5 -10 -3 -5 3 -10 15 -10 12 0
18 5 15 10 -3 6 -1 10 5 10 7 0 9 -8 5 -19 -6 -20 19 -49 29 -32 8 13 36 7 47
-10 6 -10 9 -10 9 -2 0 7 6 12 13 10 6 -1 11 4 10 10 -2 7 1 13 7 13 5 0 7 7
4 15 -4 8 -1 15 6 15 6 0 8 -5 4 -12 -5 -8 -2 -9 9 -5 9 3 19 2 22 -4 4 -5 10
-7 14 -5 4 3 13 1 21 -4 10 -6 1 -8 -27 -5 -24 2 -43 0 -43 -5 0 -13 18 -22
24 -11 8 13 36 7 47 -10 7 -11 9 -10 9 6 l1 20 16 -20 c14 -18 15 -18 9 -2 -4
13 -2 17 6 14 7 -2 12 -11 10 -18 -2 -8 0 -11 4 -7 4 4 14 2 23 -5 14 -10 14
-10 3 5 -9 11 -10 18 -2 23 5 3 10 1 10 -6 0 -9 3 -9 14 0 11 10 18 7 31 -11
11 -14 15 -17 12 -6 -4 10 -2 20 3 23 6 4 10 1 10 -4 0 -6 4 -11 10 -11 5 0 9
3 8 7 -3 11 25 53 35 53 4 0 0 -12 -9 -26 -15 -22 -15 -27 -3 -34 9 -6 23 -3
38 7 22 14 24 14 18 -1 -4 -10 -3 -15 3 -11 18 11 12 38 -7 30 -31 -12 -54
-14 -48 -4 4 5 13 9 20 9 9 0 12 6 9 15 -4 8 -1 15 6 15 6 0 8 -5 5 -10 -3 -6
3 -10 15 -10 12 0 18 5 15 10 -3 6 -1 10 5 10 7 0 9 -8 5 -19 -6 -20 19 -49
29 -32 8 13 36 7 47 -10 6 -10 9 -10 9 -2 0 7 6 12 13 10 6 -1 11 4 10 11 -2
6 1 12 7 12 5 0 7 7 4 15 -4 8 -1 15 6 15 6 0 8 -5 4 -12 -5 -8 -2 -9 9 -5 9
3 19 2 22 -4 4 -5 10 -7 14 -5 4 3 13 1 21 -4 10 -6 1 -8 -27 -5 -24 2 -43 0
-43 -5 0 -13 18 -22 24 -11 8 13 36 7 47 -10 7 -11 9 -10 9 6 l1 20 16 -20
c14 -18 15 -18 9 -2 -4 13 -2 17 6 14 7 -2 12 -11 10 -18 -2 -8 0 -11 4 -7 4
4 14 2 23 -5 14 -10 14 -10 3 5 -9 11 -10 18 -2 23 5 3 10 1 10 -6 0 -9 3 -9
14 0 11 10 18 7 31 -11 11 -14 15 -17 12 -6 -4 10 -2 20 3 23 6 4 10 1 10 -4
0 -6 4 -11 10 -11 5 0 9 3 8 8 -3 10 25 52 35 52 4 0 0 -12 -9 -26 -15 -22
-15 -27 -3 -34 9 -6 23 -3 38 7 22 14 24 14 18 -1 -4 -10 -3 -15 3 -11 18 11
12 38 -7 30 -31 -12 -54 -14 -48 -4 4 5 13 9 20 9 9 0 12 6 9 15 -4 8 -1 15 6
15 6 0 8 -4 5 -10 -3 -5 3 -10 15 -10 12 0 18 5 15 10 -3 6 -1 10 5 10 7 0 9
-8 5 -19 -6 -20 19 -49 29 -32 8 13 36 7 47 -10 6 -10 9 -10 9 -2 0 7 6 12 13
10 6 -1 11 4 10 11 -2 6 1 12 7 12 5 0 7 7 4 15 -4 8 -1 15 6 15 6 0 8 -5 4
-12 -5 -8 -2 -9 9 -5 9 3 19 2 22 -4 4 -5 10 -7 14 -5 4 3 13 1 21 -4 10 -6 1
-8 -27 -5 -24 2 -43 0 -43 -5 0 -13 18 -22 24 -11 8 13 36 7 47 -10 7 -11 9
-10 9 6 l1 20 16 -20 c14 -18 15 -18 9 -2 -4 13 -2 17 6 14 7 -2 12 -11 10
-18 -2 -8 0 -11 4 -7 4 4 14 2 23 -5 14 -10 14 -10 3 5 -9 11 -10 18 -2 23 5
3 10 1 10 -6 0 -9 3 -9 14 0 11 10 18 7 31 -11 11 -14 15 -17 12 -6 -4 10 -2
20 3 23 6 4 10 1 10 -4 0 -6 4 -11 10 -11 5 0 9 3 8 8 -3 10 25 52 35 52 4 0
0 -12 -9 -26 -15 -22 -15 -27 -3 -34 9 -6 23 -3 38 7 22 14 24 14 18 -1 -4
-10 -3 -15 3 -11 18 11 12 38 -7 30 -31 -12 -54 -14 -48 -4 4 5 13 9 20 9 9 0
12 6 9 15 -4 8 -1 15 6 15 6 0 8 -4 5 -10 -3 -5 3 -10 15 -10 12 0 18 5 15 10
-3 6 -1 10 5 10 7 0 9 -8 5 -19 -6 -20 19 -49 29 -32 8 13 36 7 47 -10 6 -10
9 -10 9 -2 0 7 6 12 13 10 6 -1 11 4 10 10 -2 7 1 13 7 13 5 0 7 7 4 15 -4 8
-1 15 6 15 6 0 8 -5 4 -12 -5 -8 -2 -9 9 -5 9 3 19 2 22 -4 4 -5 10 -7 14 -5
4 3 13 1 21 -4 10 -6 1 -8 -27 -5 -24 2 -43 0 -43 -5 0 -13 18 -22 24 -11 8
13 36 7 47 -10 7 -11 9 -10 9 6 l1 20 16 -20 c14 -18 15 -18 9 -2 -4 13 -2 17
6 14 7 -2 12 -11 10 -18 -2 -8 0 -11 4 -7 4 4 14 2 23 -5 14 -10 14 -10 3 5
-9 11 -10 18 -2 23 5 3 10 1 10 -6 0 -9 3 -9 14 0 11 10 18 7 31 -11 11 -14
15 -17 12 -6 -4 10 -2 20 3 23 6 4 10 1 10 -4 0 -6 4 -11 10 -11 5 0 9 3 8 7
-3 11 25 53 35 53 4 0 0 -12 -9 -26 -15 -22 -15 -27 -3 -34 9 -6 23 -3 38 7
22 14 24 14 18 -1 -4 -10 -3 -15 3 -11 18 11 12 38 -8 30 -30 -12 -53 -14 -47
-4 4 5 13 9 20 9 9 0 12 6 9 15 -4 8 -1 15 6 15 6 0 8 -4 5 -10 -3 -5 3 -10
15 -10 12 0 18 5 15 10 -3 6 -1 10 5 10 7 0 9 -8 5 -19 -6 -20 19 -49 29 -32
8 13 36 7 47 -10 6 -10 9 -10 9 -2 0 7 6 12 13 10 6 -1 11 4 10 10 -2 7 1 13
7 13 5 0 7 7 4 15 -4 8 -1 15 6 15 6 0 8 -5 4 -12 -5 -8 -2 -9 9 -5 9 3 19 2
22 -4 4 -5 10 -7 14 -5 4 3 13 1 21 -4 10 -6 1 -8 -27 -5 -24 2 -43 0 -43 -5
0 -13 18 -22 24 -11 8 13 36 7 47 -10 7 -11 9 -10 9 6 l1 20 16 -20 c14 -18
15 -18 9 -2 -4 13 -2 17 6 14 7 -2 12 -11 10 -18 -2 -8 0 -11 4 -7 4 4 14 2
23 -5 14 -10 14 -10 3 5 -9 11 -10 18 -2 23 5 3 10 1 10 -6 0 -9 3 -9 14 0 11
10 18 7 31 -11 11 -14 15 -17 12 -6 -4 10 -2 20 3 23 6 4 10 1 10 -4 0 -6 4
-11 10 -11 5 0 9 3 8 8 -3 10 25 52 35 52 4 0 0 -12 -9 -26 -15 -22 -15 -27
-3 -34 9 -6 23 -3 38 7 22 14 24 14 18 -1 -4 -10 -3 -15 3 -11 18 11 12 38 -7
30 -31 -12 -54 -14 -48 -4 4 5 13 9 20 9 9 0 12 6 9 15 -4 8 -1 15 6 15 6 0 8
-5 5 -10 -3 -6 3 -10 15 -10 12 0 18 5 15 10 -3 6 -1 10 5 10 7 0 9 -8 5 -19
-6 -20 19 -49 29 -32 8 13 36 7 47 -10 6 -10 9 -10 9 -2 0 7 6 12 13 10 6 -1
11 4 10 11 -2 6 1 12 7 12 5 0 7 7 4 15 -4 8 -1 15 6 15 6 0 8 -5 4 -12 -5 -8
-2 -9 9 -5 9 3 19 2 22 -4 4 -5 10 -7 14 -5 4 3 13 1 21 -4 10 -6 1 -8 -27 -5
-24 2 -43 0 -43 -5 0 -13 18 -22 24 -11 8 13 36 7 47 -10 7 -11 9 -10 9 6 l1
20 16 -20 c14 -18 15 -18 9 -2 -4 13 -2 17 6 14 7 -2 12 -11 10 -18 -2 -8 0
-11 4 -7 4 4 14 2 23 -5 14 -10 14 -10 3 5 -9 11 -10 18 -2 23 5 3 10 1 10 -6
0 -9 3 -9 14 0 11 10 18 7 31 -11 11 -14 15 -17 12 -6 -4 10 -2 20 3 23 6 4
10 1 10 -4 0 -6 4 -11 10 -11 5 0 9 3 8 8 -3 10 25 52 35 52 4 0 0 -12 -9 -26
-15 -22 -15 -27 -3 -34 9 -6 23 -3 38 7 22 14 24 14 18 -1 -4 -10 -3 -15 3
-11 18 11 12 38 -7 30 -31 -12 -54 -14 -48 -4 4 5 13 9 20 9 9 0 12 6 9 15 -4
8 -1 15 6 15 6 0 8 -4 5 -10 -3 -5 3 -10 15 -10 12 0 18 5 15 10 -3 6 -1 10 5
10 7 0 9 -7 6 -16 -8 -20 12 -46 28 -37 20 13 37 12 43 -4 5 -12 7 -12 14 -1
7 11 11 10 20 -2 9 -13 10 -13 6 2 -5 13 0 16 19 14 13 -2 27 -6 31 -9 3 -4
13 -2 20 5 11 9 16 9 23 -2 5 -8 6 -18 4 -22 -3 -4 0 -8 6 -8 7 0 9 8 4 22 -6
19 -4 21 7 11 14 -12 64 -11 76 1 3 3 12 1 19 -5 10 -8 17 -7 27 3 16 17 22
72 5 62 -7 -4 -8 -3 -4 5 4 6 12 9 17 6 5 -4 9 1 9 10 0 13 -4 14 -22 4 -20
-11 -21 -10 -11 3 7 8 9 18 5 23 -4 4 2 3 13 -2 28 -13 48 -11 52 7 4 12 3 12
-5 1 -6 -8 -12 -9 -16 -3 -3 6 -2 13 4 17 6 4 7 11 4 17 -5 8 -1 9 12 5 15 -6
13 -3 -5 11 -16 13 -20 21 -12 26 6 4 8 12 5 18 -5 7 -1 9 9 5 10 -3 17 -2 17
3 0 6 -7 10 -15 10 -8 0 -15 5 -15 10 0 6 6 10 13 10 8 0 7 4 -3 10 -8 5 -11
10 -6 10 5 0 3 6 -3 14 -10 11 -8 17 9 29 16 11 18 16 7 20 -9 3 -13 16 -12
31 2 14 -1 24 -6 20 -5 -3 -9 2 -9 10 0 19 11 20 30 3 12 -10 12 -9 2 5 -10
13 -10 17 0 22 7 3 2 3 -12 -1 -21 -5 -23 -4 -13 9 7 8 9 19 5 23 -4 5 1 5 11
2 9 -4 17 -2 17 3 0 6 -7 10 -15 10 -8 0 -15 5 -15 10 0 6 6 10 13 10 8 0 7 4
-3 10 -8 5 -11 10 -6 10 5 0 3 6 -3 14 -8 10 -8 16 2 25 8 6 18 7 23 3 5 -4 2
2 -7 13 -8 11 -14 30 -13 42 0 12 -3 20 -7 17 -5 -3 -9 2 -9 11 0 10 6 15 13
12 8 -3 14 1 14 8 0 8 -7 11 -16 7 -13 -5 -14 -3 -4 10 7 8 9 19 5 23 -4 5 2
5 13 2 19 -7 19 -6 3 7 -10 7 -18 17 -18 21 0 4 8 4 18 1 14 -5 14 -4 -2 9
-11 8 -16 15 -12 15 5 0 3 6 -3 14 -8 10 -8 16 2 25 8 6 18 7 23 3 5 -4 2 2
-7 13 -8 11 -14 30 -13 42 0 12 -3 20 -7 17 -5 -3 -9 2 -9 11 0 10 6 15 13 12
8 -3 14 1 14 8 0 8 -7 11 -16 7 -13 -5 -14 -3 -4 10 7 8 9 19 5 23 -4 5 2 5
13 2 19 -7 19 -6 3 7 -10 7 -18 17 -18 21 0 4 8 4 18 1 14 -5 14 -4 -2 9 -11
8 -16 15 -12 15 5 0 3 6 -3 14 -8 10 -8 16 2 25 8 6 18 7 23 3 5 -4 2 2 -7 13
-8 11 -14 30 -13 42 0 12 -3 20 -7 17 -5 -3 -9 2 -9 11 0 10 6 15 13 12 8 -3
14 1 14 8 0 8 -7 11 -16 7 -13 -5 -14 -3 -4 10 7 8 9 19 5 23 -4 5 2 5 13 2
19 -7 19 -6 3 7 -10 7 -18 17 -18 21 0 4 8 4 18 1 15 -5 15 -4 2 6 -20 17 -23
51 -4 44 8 -3 14 -1 14 4 0 6 -7 10 -15 10 -8 0 -15 5 -15 10 0 6 6 10 13 10
8 0 7 4 -3 10 -8 5 -11 10 -6 10 5 0 3 6 -3 14 -10 11 -8 17 9 29 16 11 18 16
7 20 -9 3 -13 16 -12 31 2 14 -1 24 -6 20 -5 -3 -9 2 -9 10 0 19 11 20 30 3
12 -10 12 -9 2 5 -10 13 -10 17 0 22 7 3 2 3 -12 -1 -21 -5 -23 -4 -13 9 7 8
9 19 5 23 -4 5 1 5 11 2 9 -4 17 -2 17 3 0 6 -7 10 -15 10 -8 0 -15 5 -15 10
0 6 6 10 13 10 8 0 7 4 -3 10 -8 5 -11 10 -6 10 5 0 3 6 -3 14 -10 11 -8 17 9
29 16 11 18 16 7 20 -9 3 -13 16 -12 31 2 14 -1 24 -6 20 -5 -3 -9 2 -9 10 0
19 11 20 30 3 12 -10 12 -9 2 5 -10 13 -10 17 0 22 7 3 2 3 -12 -1 -21 -5 -23
-4 -13 9 7 8 9 19 5 23 -4 5 1 5 11 2 9 -4 17 -2 17 3 0 6 -7 10 -15 10 -8 0
-15 5 -15 10 0 6 6 10 13 10 8 0 7 4 -3 10 -8 5 -11 10 -6 10 5 0 3 6 -3 14
-8 10 -8 16 2 25 8 6 18 7 23 3 5 -4 2 2 -7 13 -8 11 -14 30 -13 42 0 12 -3
20 -7 17 -5 -3 -9 2 -9 11 0 10 6 15 13 12 8 -3 14 1 14 8 0 8 -7 11 -16 7
-13 -5 -14 -3 -4 10 7 8 9 19 5 23 -4 5 2 5 13 2 19 -7 19 -6 3 7 -23 17 -23
30 0 22 14 -5 14 -4 -2 9 -11 8 -16 15 -12 15 5 0 3 6 -3 14 -8 10 -8 16 2 25
8 6 18 7 23 3 5 -4 2 2 -7 13 -8 11 -14 30 -13 42 0 12 -3 20 -7 17 -5 -3 -9
2 -9 11 0 10 6 15 13 12 8 -3 14 1 14 8 0 8 -7 11 -16 7 -14 -5 -14 -3 -2 11
7 9 10 17 5 18 -5 0 0 4 11 9 18 8 18 9 2 9 -10 1 -15 5 -12 11 3 5 1 10 -5
10 -6 0 -8 -11 -6 -25 3 -17 1 -23 -6 -19 -7 5 -8 2 -3 -6 6 -9 4 -11 -6 -5
-11 7 -11 5 1 -10 9 -11 10 -16 3 -11 -17 10 -16 -5 1 -29 7 -11 13 -27 13
-37 0 -13 -4 -14 -25 -5 -13 6 -19 13 -13 15 9 3 8 8 -1 20 -9 11 -9 14 -1 9
9 -6 11 1 8 24 -3 21 1 36 11 44 13 9 13 13 -5 29 -19 17 -19 19 -2 37 18 20
21 45 7 67 -4 6 -4 12 1 12 4 0 1 5 -7 11 -12 9 -12 10 4 5 13 -4 17 -2 13 7
-3 8 -1 20 5 28 8 11 9 11 5 -3 -3 -9 1 -19 9 -22 8 -3 12 -1 9 4 -3 5 0 7 8
4 8 -3 18 0 22 6 4 7 0 10 -11 8 -26 -4 -29 45 -4 67 19 17 18 35 -1 35 -6 0
-7 -6 -3 -12 4 -7 3 -9 -1 -5 -5 4 -10 14 -11 22 -2 11 2 12 16 5 13 -7 20 -6
22 2 3 8 12 6 29 -5 24 -16 25 -16 26 6 0 12 -1 16 -4 10 -3 -7 -9 -13 -14
-13 -6 0 -7 5 -4 11 4 5 -1 20 -12 31 -10 12 -13 18 -6 15 6 -4 14 -3 18 3 6
10 -3 13 -37 13 -10 0 -15 3 -13 8 3 4 17 6 31 3 15 -3 23 -1 20 5 -12 18 24
5 44 -17 12 -12 24 -22 27 -22 3 0 -1 8 -10 18 -22 24 -22 38 0 21 10 -8 14
-9 10 -2 -4 6 -3 14 3 18 10 6 15 -9 10 -30 -1 -5 2 -6 6 -2 13 12 13 37 1 37
-6 0 -2 10 10 22 18 17 25 19 37 9 11 -9 16 -9 22 0 4 7 3 9 -4 5 -6 -3 -13
-2 -17 4 -3 5 -1 10 6 10 7 0 4 7 -7 15 -18 14 -18 14 0 15 12 0 16 5 13 14
-4 9 1 17 12 21 10 3 18 12 18 20 0 8 -4 12 -8 10 -4 -3 -10 2 -13 11 -9 25
-8 26 19 8 23 -15 25 -15 19 0 -3 9 -10 14 -14 11 -5 -3 -11 -1 -14 4 -4 5 2
12 11 14 15 4 14 5 -3 6 -12 1 -26 -8 -33 -21 -6 -13 -9 -15 -7 -6 3 9 0 19
-7 22 -7 2 -4 5 5 5 10 1 17 4 17 9 -5 28 1 34 18 21 12 -10 10 -4 -5 18 -12
17 -22 35 -22 40 0 14 -61 73 -92 89 -16 8 -45 17 -64 20 -30 3 -39 -1 -61
-26 -13 -17 -29 -27 -35 -24 -5 3 -8 -2 -6 -11 2 -10 -4 -20 -12 -22 -9 -3
-11 -1 -5 4 6 4 10 19 9 33 -2 32 5 50 19 50 7 0 7 -4 -1 -12 -16 -16 -15 -25
3 -25 8 0 12 4 9 9 -3 5 -1 14 4 21 11 15 12 48 0 41 -4 -3 -8 2 -8 11 0 12 4
13 18 6 15 -8 18 -6 18 14 0 13 -4 21 -8 19 -5 -3 -6 -10 -3 -15 4 -5 2 -9 -3
-9 -16 0 -22 13 -11 27 6 7 8 13 3 13 -5 0 -2 5 6 10 9 6 10 10 3 10 -6 0 -10
9 -8 20 2 11 0 18 -6 15 -5 -4 -9 1 -9 10 0 10 6 15 13 12 8 -3 14 1 14 8 0 8
-7 11 -16 7 -13 -5 -14 -3 -4 10 7 8 9 19 5 23 -4 5 2 5 13 2 19 -7 19 -6 3 7
-10 7 -18 17 -18 21 0 4 8 4 18 1 14 -5 14 -4 -2 9 -11 8 -16 15 -12 15 5 0 3
6 -3 14 -8 10 -8 16 2 25 8 6 18 7 23 3 5 -4 2 2 -7 13 -8 11 -14 30 -13 42 0
12 -3 20 -7 17 -5 -3 -9 2 -9 11 0 10 6 15 13 12 8 -3 14 1 14 8 0 8 -7 11
-16 7 -13 -5 -14 -3 -4 10 7 8 9 19 5 23 -4 5 2 5 13 2 19 -7 19 -6 2 7 -22
17 -22 30 1 22 14 -5 14 -4 -2 9 -11 8 -16 15 -12 15 5 0 3 6 -3 14 -8 10 -8
16 2 25 8 6 18 7 23 3 5 -4 2 2 -7 13 -8 11 -14 30 -13 42 0 12 -3 20 -7 17
-5 -3 -9 2 -9 11 0 10 6 15 13 12 8 -3 14 1 14 8 0 8 -7 11 -16 7 -13 -5 -14
-3 -4 10 7 8 9 19 5 23 -4 5 2 5 13 2 19 -7 19 -6 2 7 -22 17 -22 30 1 22 15
-5 15 -4 2 6 -20 17 -23 51 -4 44 8 -3 14 -1 14 4 0 6 -7 10 -15 10 -8 0 -15
5 -15 10 0 6 6 10 13 10 8 0 7 4 -3 10 -8 5 -11 10 -6 10 5 0 3 6 -3 14 -10
11 -8 17 9 29 16 11 18 16 7 20 -9 3 -13 16 -12 31 2 14 -1 24 -6 20 -5 -3 -9
2 -9 10 0 19 11 20 30 4 12 -11 12 -10 2 4 -10 13 -10 17 0 22 7 3 2 3 -12 -1
-21 -5 -23 -4 -13 9 7 8 9 19 5 23 -4 5 1 5 11 2 9 -4 17 -2 17 3 0 6 -7 10
-15 10 -8 0 -15 5 -15 10 0 6 6 10 13 10 8 0 7 4 -3 10 -8 5 -11 10 -6 10 5 0
3 6 -3 13 -8 11 -6 18 9 32 11 10 20 23 20 29 0 6 -4 5 -9 -3 -10 -16 -18 -4
-15 26 0 12 -3 20 -7 17 -5 -3 -9 2 -9 11 0 12 6 15 23 11 12 -3 16 -3 9 0 -6
3 -10 10 -7 15 4 5 -2 6 -12 2 -16 -6 -16 -5 -4 10 7 9 10 17 5 17 -5 0 -2 5
6 10 11 7 11 10 2 10 -7 0 -10 5 -7 10 3 6 0 10 -7 10 -9 0 -9 3 2 10 8 5 10
10 5 10 -6 0 -16 -5 -23 -12 -9 -9 -12 -9 -12 1 0 7 -4 9 -10 6 -6 -3 -7 1 -3
10 5 13 7 14 14 3 5 -7 9 -8 9 -2 0 5 -5 15 -12 22 -6 6 -13 31 -15 54 -5 71
-21 78 -184 78 -86 0 -139 4 -139 10 0 6 -5 10 -11 10 -5 0 -7 -4 -4 -10 3 -5
2 -10 -2 -10 -5 0 -14 9 -21 21 -8 12 -9 18 -4 15 11 -7 22 16 22 45 0 10 5
19 11 19 5 0 7 -5 3 -12 -5 -7 -3 -8 6 -3 10 6 9 11 -6 23 -18 14 -18 14 5 9
17 -4 21 -3 13 5 -13 13 -46 2 -37 -12 3 -5 1 -10 -5 -10 -6 0 -9 -4 -6 -9 3
-5 -1 -12 -9 -15 -12 -4 -13 -2 -6 13 6 10 7 21 4 25 -3 3 -1 6 5 6 7 0 12 5
12 11 0 6 -7 8 -16 5 -13 -5 -14 -3 -7 6 11 15 11 28 0 45 -4 6 -2 15 4 19 8
4 7 9 -2 15 -10 6 -11 9 -1 9 6 0 12 5 12 11 0 5 -4 7 -10 4 -6 -3 -10 -1 -10
4 0 6 5 11 11 11 8 0 8 4 0 13 -8 10 -7 17 2 27 10 10 9 11 -2 5 -11 -6 -13
-4 -8 8 3 9 -4 26 -17 40 l-23 25 -1482 0 c-815 0 -1484 2 -1487 5 -3 3 -8 20
-11 39 -18 121 -149 177 -254 109z m177 -46 c20 -20 34 -53 34 -82 0 -28 -1
-28 -58 -26 -31 0 -85 2 -119 2 l-62 1 5 33 c9 51 36 81 85 93 45 11 91 3 115
-21z m3109 -475 c3 -5 1 -10 -4 -10 -6 0 -11 5 -11 10 0 6 2 10 4 10 3 0 8 -4
11 -10z m406 -199 c0 -3 2 -14 4 -23 2 -10 -1 -20 -6 -24 -5 -3 -6 -10 -3 -16
4 -7 2 -8 -4 -4 -17 10 -15 -6 4 -32 9 -13 13 -26 10 -29 -3 -3 -1 -12 4 -18
7 -9 6 -16 -5 -25 -8 -7 -15 -9 -15 -5 0 4 -6 2 -14 -4 -12 -10 -14 -9 -12 6
2 10 8 19 14 19 26 3 26 5 2 19 -14 8 -19 14 -11 15 11 0 11 3 0 17 -8 9 -9
14 -3 10 12 -7 13 57 2 69 -10 10 2 31 17 31 8 0 15 -3 16 -6z m4 -240 c0 -23
-3 -45 -7 -47 -5 -3 -5 -10 -2 -16 4 -7 2 -8 -4 -4 -17 10 -15 -6 4 -32 9 -13
13 -26 10 -29 -3 -3 -1 -12 4 -18 7 -9 6 -16 -5 -25 -8 -7 -15 -9 -15 -5 0 4
-6 2 -14 -4 -12 -10 -14 -9 -12 6 2 10 8 19 14 19 26 3 26 5 2 19 -14 8 -19
14 -11 15 11 0 11 3 0 17 -8 9 -9 14 -3 10 12 -7 13 57 1 69 -3 4 0 19 8 34 8
15 11 31 7 35 -4 4 0 6 8 3 9 -3 14 -19 15 -47z m0 -280 c0 -45 -3 -85 -7 -87
-5 -3 -5 -10 -2 -16 4 -7 2 -8 -4 -4 -17 10 -15 -6 4 -32 9 -13 13 -26 10 -29
-3 -3 -1 -12 4 -18 7 -9 6 -16 -5 -25 -8 -7 -15 -9 -15 -5 0 4 -6 2 -14 -4
-12 -10 -14 -9 -12 6 2 10 8 19 14 19 26 3 26 5 2 19 -14 8 -19 14 -11 15 11
0 11 3 0 17 -8 9 -9 14 -3 10 12 -7 13 57 1 69 -3 4 0 19 8 34 13 24 13 30 0
40 -13 10 -13 16 0 40 8 15 11 31 7 35 -4 4 0 6 8 3 11 -3 15 -23 15 -87z m0
-280 c0 -23 -3 -45 -7 -47 -5 -3 -5 -10 -2 -16 4 -7 2 -8 -4 -4 -17 10 -15 -6
4 -32 9 -13 13 -26 10 -29 -3 -3 -1 -12 4 -18 7 -9 6 -16 -5 -25 -8 -7 -15 -9
-15 -5 0 4 -6 2 -14 -4 -12 -10 -14 -9 -12 6 2 10 8 19 14 19 26 3 26 5 2 19
-14 8 -19 14 -11 15 11 0 11 3 0 17 -8 9 -9 14 -3 10 12 -7 13 57 1 69 -3 4 0
19 8 34 8 15 11 31 7 35 -4 4 0 6 8 3 9 -3 14 -19 15 -47z m0 -240 c0 -23 -3
-45 -7 -47 -5 -3 -5 -10 -2 -16 4 -7 2 -8 -4 -4 -15 9 -15 0 0 -27 15 -27 18
-66 6 -73 -4 -3 -5 -10 -2 -16 5 -7 2 -8 -6 -3 -10 6 -12 4 -7 -8 4 -10 1 -17
-5 -17 -6 0 -8 -3 -4 -7 4 -5 13 -8 19 -8 5 0 12 -7 14 -15 4 -13 3 -13 -6 0
-6 8 -11 11 -11 6 0 -5 -7 -3 -14 4 -11 8 -12 18 -6 35 6 15 4 27 -3 35 -9 10
-9 11 0 6 15 -8 14 33 -1 53 -8 11 -8 13 0 8 12 -7 13 57 1 69 -3 4 0 19 8 34
8 15 11 31 7 35 -4 4 0 6 8 3 9 -3 14 -19 15 -47z m215 -486 c0 -8 -4 -15 -10
-15 -5 0 -7 7 -4 15 4 8 8 15 10 15 2 0 4 -7 4 -15z m30 -45 c-8 -6 -21 -8
-27 -5 -7 2 -13 3 -13 1 0 -3 -3 -13 -6 -23 -6 -15 -4 -16 7 -5 7 6 18 12 24
12 5 0 2 -5 -8 -11 -14 -8 -16 -14 -6 -25 10 -12 9 -13 -6 -8 -11 5 -16 4 -12
-3 7 -12 -36 -56 -58 -59 -9 -1 -12 2 -8 9 4 7 0 8 -13 4 -12 -5 -10 0 8 13
17 14 25 27 22 38 -5 13 -4 14 4 3 7 -9 12 -10 16 -2 4 6 12 8 18 5 8 -5 9 -1
5 10 -4 10 -2 26 3 36 7 13 6 20 -3 23 -6 2 -5 3 4 2 9 -1 23 1 30 6 8 5 18 4
24 -2 6 -6 5 -13 -5 -19z m-70 -31 c0 -14 -17 -10 -23 5 -4 10 -1 13 9 9 7 -3
14 -9 14 -14z m-68 -61 c-6 -6 -12 -6 -17 3 -5 8 -4 10 3 5 7 -4 12 0 13 11 0
12 2 13 6 5 3 -8 1 -18 -5 -24z m-17 -18 c3 -5 1 -10 -4 -10 -6 0 -11 5 -11
10 0 6 2 10 4 10 3 0 8 -4 11 -10z m-38 -89 c7 7 14 4 24 -8 12 -16 12 -17 -2
-6 -10 8 -19 9 -25 3 -7 -7 -17 -3 -30 12 -19 23 -19 23 2 6 14 -12 24 -14 31
-7z m-59 -76 c-3 -3 -9 2 -12 12 -6 14 -5 15 5 6 7 -7 10 -15 7 -18z m-27
-178 c-10 -9 -11 -8 -5 6 3 10 9 15 12 12 3 -3 0 -11 -7 -18z m37 -224 c-6 -8
-13 -11 -16 -8 -3 3 -11 0 -18 -6 -9 -8 -12 -6 -9 8 4 22 0 19 30 19 19 0 22
-3 13 -13z m-3 -72 c0 -23 -3 -45 -7 -47 -5 -3 -5 -10 -2 -16 4 -7 2 -8 -4 -4
-17 10 -15 -6 4 -32 9 -13 13 -26 10 -29 -3 -3 -1 -12 4 -18 7 -9 6 -16 -5
-25 -8 -7 -15 -9 -15 -5 0 4 -6 2 -14 -4 -12 -10 -14 -9 -12 6 2 10 8 19 14
19 26 3 26 5 2 19 -14 8 -19 14 -11 15 11 0 11 3 0 17 -8 9 -9 14 -3 10 12 -7
13 57 1 69 -3 4 0 19 8 34 8 15 11 31 7 35 -4 4 0 6 8 3 9 -3 14 -19 15 -47z
m0 -240 c0 -23 -3 -45 -7 -47 -5 -3 -5 -10 -2 -16 4 -7 2 -8 -4 -4 -17 10 -15
-6 4 -32 9 -13 13 -26 10 -29 -3 -3 -1 -12 4 -18 7 -9 6 -16 -5 -25 -8 -7 -15
-9 -15 -5 0 4 -6 2 -14 -4 -12 -10 -14 -9 -12 6 2 10 8 19 14 19 26 3 26 5 2
19 -14 8 -19 14 -11 15 11 0 11 3 0 17 -8 9 -9 14 -3 10 12 -7 13 57 1 69 -3
4 0 19 8 34 8 15 11 31 7 35 -4 4 0 6 8 3 9 -3 14 -19 15 -47z m0 -240 c0 -23
-3 -45 -7 -47 -5 -3 -5 -10 -2 -16 4 -7 2 -8 -4 -4 -17 10 -15 -6 4 -32 9 -13
13 -26 10 -29 -3 -3 -1 -12 4 -18 7 -9 6 -16 -5 -25 -8 -7 -15 -9 -15 -5 0 4
-6 2 -14 -4 -12 -10 -14 -9 -12 6 2 10 8 19 14 19 26 3 26 5 2 19 -14 8 -19
14 -11 15 11 0 11 3 0 17 -8 9 -9 14 -3 10 12 -7 13 57 1 69 -3 4 0 19 8 34 8
15 11 31 7 35 -4 4 0 6 8 3 9 -3 14 -19 15 -47z m0 -280 c0 -45 -3 -85 -7 -87
-5 -3 -5 -10 -2 -16 4 -7 2 -8 -4 -4 -17 10 -15 -6 4 -32 9 -13 13 -26 10 -29
-3 -3 -1 -12 4 -18 7 -9 6 -16 -5 -25 -8 -7 -15 -9 -15 -5 0 4 -6 2 -14 -4
-12 -10 -14 -9 -12 6 2 10 8 19 14 19 26 3 26 5 2 19 -14 8 -19 14 -11 15 11
0 11 3 0 17 -8 9 -9 14 -3 10 12 -7 13 57 1 69 -3 4 0 19 8 34 13 24 13 30 0
40 -13 10 -13 16 0 40 8 15 11 31 7 35 -4 4 0 6 8 3 11 -3 15 -23 15 -87z m0
-280 c0 -23 -3 -45 -7 -47 -5 -3 -5 -10 -2 -16 4 -7 2 -8 -4 -4 -17 10 -15 -6
4 -32 9 -13 13 -26 10 -29 -3 -3 -1 -12 4 -18 7 -9 6 -16 -5 -25 -8 -7 -15 -9
-15 -5 0 4 -6 2 -14 -4 -12 -10 -14 -9 -12 6 2 10 8 19 14 19 26 3 26 5 2 19
-14 8 -19 14 -11 15 11 0 11 3 0 17 -8 9 -9 14 -3 10 12 -7 13 57 1 69 -3 4 0
19 8 34 8 15 11 31 7 35 -4 4 0 6 8 3 9 -3 14 -19 15 -47z m0 -240 c0 -23 -3
-45 -7 -47 -5 -3 -5 -10 -2 -16 4 -7 2 -8 -4 -4 -17 10 -15 -6 4 -32 9 -13 13
-26 10 -29 -3 -3 -1 -12 4 -18 7 -9 6 -16 -5 -25 -8 -7 -15 -9 -15 -5 0 4 -6
2 -14 -4 -12 -10 -14 -9 -12 6 2 10 8 19 14 19 26 3 26 5 2 19 -14 8 -19 14
-11 15 11 0 11 3 0 17 -8 9 -9 14 -3 10 12 -7 13 57 1 69 -3 4 0 19 8 34 8 15
11 31 7 35 -4 4 0 6 8 3 9 -3 14 -19 15 -47z m0 -240 c0 -23 -3 -45 -7 -47 -5
-3 -5 -10 -2 -16 4 -7 2 -8 -4 -4 -17 10 -15 -6 4 -32 9 -13 13 -26 10 -29 -3
-3 -1 -12 4 -18 7 -9 6 -16 -5 -25 -8 -7 -15 -9 -15 -5 0 4 -6 2 -14 -4 -12
-10 -14 -9 -12 6 2 10 8 19 14 19 26 3 26 5 2 19 -14 8 -19 14 -11 15 11 0 11
3 0 17 -8 9 -9 14 -3 10 12 -7 13 57 1 69 -3 4 0 19 8 34 8 15 11 31 7 35 -4
4 0 6 8 3 9 -3 14 -19 15 -47z m-3828 -26 c0 -8 -4 -12 -9 -9 -5 3 -6 10 -3
15 9 13 12 11 12 -6z m118 -6 c-3 -12 -7 -24 -10 -27 -3 -3 -3 5 -1 19 6 30 5
29 10 29 3 0 3 -10 1 -21z m-235 -9 c0 -5 -2 -10 -4 -10 -3 0 -8 5 -11 10 -3
6 -1 10 4 10 6 0 11 -4 11 -10z m165 0 c-3 -5 -12 -10 -18 -10 -7 0 -6 4 3 10
19 12 23 12 15 0z m3780 -199 c0 -23 -3 -45 -7 -47 -5 -3 -5 -11 -1 -17 11
-18 12 -36 2 -43 -5 -3 -6 -11 -2 -17 3 -7 -3 -4 -15 7 -12 10 -20 22 -17 26
10 16 13 60 4 65 -5 4 -3 18 6 34 8 16 11 32 7 36 -4 4 0 6 8 3 9 -3 14 -19
15 -47z m-3510 -181 c-3 -33 14 -40 35 -15 7 8 17 12 22 9 19 -12 -22 -41 -55
-39 -17 2 -37 -2 -43 -6 -8 -6 -14 -3 -18 8 -7 18 16 43 41 43 7 0 12 3 12 8
-2 11 1 22 5 22 2 0 2 -13 1 -30z m315 14 c0 -2 -11 -3 -24 -2 -14 1 -23 5
-20 9 4 7 44 0 44 -7z m64 8 c3 -5 -1 -9 -9 -9 -8 0 -12 4 -9 9 3 4 7 8 9 8 2
0 6 -4 9 -8z m416 -8 c0 -2 -11 -3 -24 -2 -14 1 -23 5 -20 9 4 7 44 0 44 -7z
m64 8 c3 -5 -1 -9 -9 -9 -8 0 -12 4 -9 9 3 4 7 8 9 8 2 0 6 -4 9 -8z m416 -8
c0 -2 -11 -3 -24 -2 -14 1 -23 5 -20 9 4 7 44 0 44 -7z m64 8 c3 -5 -1 -9 -9
-9 -8 0 -12 4 -9 9 3 4 7 8 9 8 2 0 6 -4 9 -8z m416 -8 c0 -2 -11 -3 -24 -2
-14 1 -23 5 -20 9 4 7 44 0 44 -7z m64 8 c3 -5 -1 -9 -9 -9 -8 0 -12 4 -9 9 3
4 7 8 9 8 2 0 6 -4 9 -8z m416 -8 c0 -2 -11 -3 -24 -2 -14 1 -23 5 -20 9 4 7
44 0 44 -7z m64 8 c3 -5 -1 -9 -9 -9 -8 0 -12 4 -9 9 3 4 7 8 9 8 2 0 6 -4 9
-8z m416 -8 c0 -2 -11 -3 -24 -2 -14 1 -23 5 -20 9 4 7 44 0 44 -7z m64 8 c3
-5 -1 -9 -9 -9 -8 0 -12 4 -9 9 3 4 7 8 9 8 2 0 6 -4 9 -8z m416 -8 c0 -2 -11
-3 -24 -2 -14 1 -23 5 -20 9 4 7 44 0 44 -7z m126 -1 c-2 -9 -9 -19 -17 -21
-11 -3 -11 -1 1 7 8 6 11 11 7 11 -5 0 -5 5 -2 10 9 15 14 12 11 -7z m29 -19
c-8 -6 -15 -15 -15 -19 0 -5 3 -5 6 -2 4 3 15 2 25 -3 11 -6 20 -6 24 -1 3 5
-3 12 -12 15 -10 2 -3 3 15 1 17 -2 32 0 32 5 0 4 8 11 17 14 15 6 15 4 -2
-14 -10 -11 -13 -20 -7 -20 6 0 14 5 17 10 9 14 24 12 21 -2 -4 -26 -18 -41
-26 -28 -5 9 -13 9 -27 1 -11 -6 -31 -8 -44 -5 -13 3 -29 6 -34 6 -16 2 -16
38 0 44 8 3 11 13 8 22 -4 15 -3 15 6 2 8 -11 7 -18 -4 -26z m95 32 c0 -3 -4
-8 -10 -11 -5 -3 -10 -1 -10 4 0 6 5 11 10 11 6 0 10 -2 10 -4z m-3326 -15 c3
-4 -6 -6 -21 -3 -19 4 -24 2 -18 -8 5 -9 4 -11 -4 -6 -6 4 -9 12 -6 17 8 11
42 12 49 0z m101 -1 c3 -5 1 -10 -4 -10 -6 0 -11 5 -11 10 0 6 2 10 4 10 3 0
8 -4 11 -10z m64 -45 c9 -11 12 -17 7 -13 -5 4 -15 3 -22 -3 -8 -7 -14 -7 -19
1 -3 5 1 10 10 10 15 0 15 2 1 22 -9 12 -16 27 -16 33 0 5 6 1 12 -10 6 -11
18 -29 27 -40z m132 28 c-12 -20 -14 -14 -5 12 4 9 9 14 11 11 3 -2 0 -13 -6
-23z m44 17 c3 -5 1 -10 -4 -10 -6 0 -11 5 -11 10 0 6 2 10 4 10 3 0 8 -4 11
-10z m47 -4 c7 4 8 2 4 -5 -9 -13 -26 -5 -25 12 0 9 2 8 6 -1 2 -6 10 -9 15
-6z m92 5 c3 -4 -6 -6 -21 -3 -19 4 -24 2 -18 -8 5 -9 4 -11 -4 -6 -6 4 -9 12
-6 17 8 11 42 12 49 0z m101 -1 c3 -5 1 -10 -4 -10 -6 0 -11 5 -11 10 0 6 2
10 4 10 3 0 8 -4 11 -10z m64 -45 c9 -11 12 -17 7 -13 -5 4 -15 3 -22 -3 -8
-7 -14 -7 -19 1 -3 5 1 10 10 10 15 0 15 2 1 22 -9 12 -16 27 -16 33 0 5 6 1
12 -10 6 -11 18 -29 27 -40z m132 28 c-12 -20 -14 -14 -5 12 4 9 9 14 11 11 3
-2 0 -13 -6 -23z m44 17 c3 -5 1 -10 -4 -10 -6 0 -11 5 -11 10 0 6 2 10 4 10
3 0 8 -4 11 -10z m47 -4 c7 4 8 2 4 -5 -9 -13 -26 -5 -25 12 0 9 2 8 6 -1 2
-6 10 -9 15 -6z m92 5 c3 -4 -6 -6 -21 -3 -19 4 -24 2 -18 -8 5 -9 4 -11 -4
-6 -6 4 -9 12 -6 17 8 11 42 12 49 0z m101 -1 c3 -5 1 -10 -4 -10 -6 0 -11 5
-11 10 0 6 2 10 4 10 3 0 8 -4 11 -10z m64 -45 c9 -11 12 -17 7 -13 -5 4 -15
3 -22 -3 -8 -7 -14 -7 -19 1 -3 5 1 10 10 10 15 0 15 2 1 22 -9 12 -16 27 -16
33 0 5 6 1 12 -10 6 -11 18 -29 27 -40z m132 28 c-12 -20 -14 -14 -5 12 4 9 9
14 11 11 3 -2 0 -13 -6 -23z m44 17 c3 -5 1 -10 -4 -10 -6 0 -11 5 -11 10 0 6
2 10 4 10 3 0 8 -4 11 -10z m47 -4 c7 4 8 2 4 -5 -9 -13 -26 -5 -25 12 0 9 2
8 6 -1 2 -6 10 -9 15 -6z m92 5 c3 -4 -6 -6 -21 -3 -19 4 -24 2 -18 -8 5 -9 4
-11 -4 -6 -6 4 -9 12 -6 17 8 11 42 12 49 0z m101 -1 c3 -5 1 -10 -4 -10 -6 0
-11 5 -11 10 0 6 2 10 4 10 3 0 8 -4 11 -10z m64 -45 c9 -11 12 -17 7 -13 -5
4 -15 3 -22 -3 -8 -7 -14 -7 -19 1 -3 5 1 10 10 10 15 0 15 2 1 22 -9 12 -16
27 -16 33 0 5 6 1 12 -10 6 -11 18 -29 27 -40z m132 28 c-12 -20 -14 -14 -5
12 4 9 9 14 11 11 3 -2 0 -13 -6 -23z m44 17 c3 -5 1 -10 -4 -10 -6 0 -11 5
-11 10 0 6 2 10 4 10 3 0 8 -4 11 -10z m47 -4 c7 4 8 2 4 -5 -9 -13 -26 -5
-25 12 0 9 2 8 6 -1 2 -6 10 -9 15 -6z m92 5 c3 -4 -6 -6 -21 -3 -19 4 -24 2
-18 -8 5 -9 4 -11 -4 -6 -6 4 -9 12 -6 17 8 11 42 12 49 0z m101 -1 c3 -5 1
-10 -4 -10 -6 0 -11 5 -11 10 0 6 2 10 4 10 3 0 8 -4 11 -10z m64 -45 c9 -11
12 -17 7 -13 -5 4 -15 3 -22 -3 -8 -7 -14 -7 -19 1 -3 5 1 10 10 10 15 0 15 2
1 22 -9 12 -16 27 -16 33 0 5 6 1 12 -10 6 -11 18 -29 27 -40z m132 28 c-12
-20 -14 -14 -5 12 4 9 9 14 11 11 3 -2 0 -13 -6 -23z m44 17 c3 -5 1 -10 -4
-10 -6 0 -11 5 -11 10 0 6 2 10 4 10 3 0 8 -4 11 -10z m47 -4 c7 4 8 2 4 -5
-9 -13 -26 -5 -25 12 0 9 2 8 6 -1 2 -6 10 -9 15 -6z m92 5 c3 -4 -6 -6 -21
-3 -19 4 -24 2 -18 -8 5 -9 4 -11 -4 -6 -6 4 -9 12 -6 17 8 11 42 12 49 0z
m101 -1 c3 -5 1 -10 -4 -10 -6 0 -11 5 -11 10 0 6 2 10 4 10 3 0 8 -4 11 -10z
m64 -45 c9 -11 12 -17 7 -13 -5 4 -15 3 -22 -3 -8 -7 -14 -7 -19 1 -3 5 1 10
10 10 15 0 15 2 1 22 -9 12 -16 27 -16 33 0 5 6 1 12 -10 6 -11 18 -29 27 -40z
m132 28 c-12 -20 -14 -14 -5 12 4 9 9 14 11 11 3 -2 0 -13 -6 -23z m44 17 c3
-5 1 -10 -4 -10 -6 0 -11 5 -11 10 0 6 2 10 4 10 3 0 8 -4 11 -10z m47 -4 c7
4 8 2 4 -5 -9 -13 -26 -5 -25 12 0 9 2 8 6 -1 2 -6 10 -9 15 -6z m92 5 c3 -4
-6 -6 -21 -3 -19 4 -24 2 -18 -8 5 -9 4 -11 -4 -6 -6 4 -9 12 -6 17 8 11 42
12 49 0z m101 -1 c3 -5 1 -10 -4 -10 -6 0 -11 5 -11 10 0 6 2 10 4 10 3 0 8
-4 11 -10z m64 -45 c9 -11 12 -17 7 -13 -5 4 -15 3 -22 -3 -8 -7 -14 -7 -19 1
-3 5 1 10 10 10 15 0 15 2 1 22 -9 12 -16 27 -16 33 0 5 6 1 12 -10 6 -11 18
-29 27 -40z m236 45 c3 -6 -1 -7 -9 -4 -18 7 -21 14 -7 14 6 0 13 -4 16 -10z
m-3058 -20 c1 -11 -3 -20 -9 -20 -7 0 -6 -5 1 -14 10 -12 9 -14 -4 -12 -26 4
-48 46 -24 46 5 0 7 -5 3 -11 -4 -7 -1 -10 7 -7 8 3 13 12 11 22 -2 9 1 16 5
16 5 0 9 -9 10 -20z m480 0 c1 -11 -3 -20 -9 -20 -7 0 -6 -5 1 -14 10 -12 9
-14 -4 -12 -26 4 -48 46 -24 46 5 0 7 -5 3 -11 -4 -7 -1 -10 7 -7 8 3 13 12
11 22 -2 9 1 16 5 16 5 0 9 -9 10 -20z m480 0 c1 -11 -3 -20 -9 -20 -7 0 -6
-5 1 -14 10 -12 9 -14 -4 -12 -26 4 -48 46 -24 46 5 0 7 -5 3 -11 -4 -7 -1
-10 7 -7 8 3 13 12 11 22 -2 9 1 16 5 16 5 0 9 -9 10 -20z m480 0 c1 -11 -3
-20 -9 -20 -7 0 -6 -5 1 -14 10 -12 9 -14 -4 -12 -26 4 -48 46 -24 46 5 0 7
-5 3 -11 -4 -7 -1 -10 7 -7 8 3 13 12 11 22 -2 9 1 16 5 16 5 0 9 -9 10 -20z
m480 0 c1 -11 -3 -20 -9 -20 -7 0 -6 -5 1 -14 10 -12 9 -14 -4 -12 -26 4 -48
46 -24 46 5 0 7 -5 3 -11 -4 -7 -1 -10 7 -7 8 3 13 12 11 22 -2 9 1 16 5 16 5
0 9 -9 10 -20z m480 0 c1 -11 -3 -20 -9 -20 -7 0 -6 -5 1 -14 10 -12 9 -14 -4
-12 -26 4 -48 46 -24 46 5 0 7 -5 3 -11 -4 -7 -1 -10 7 -7 8 3 13 12 11 22 -2
9 1 16 5 16 5 0 9 -9 10 -20z m528 10 c-2 -4 7 -12 21 -19 22 -10 24 -14 13
-27 -8 -9 -16 -11 -22 -5 -5 5 -15 7 -22 5 -7 -3 -16 -1 -20 5 -4 8 -12 6 -22
-5 -15 -15 -18 -15 -30 2 -16 22 -17 34 -2 34 5 0 8 -4 4 -9 -3 -6 4 -9 15 -8
11 1 20 8 21 17 0 9 4 6 9 -7 11 -26 27 -31 27 -8 0 8 -4 15 -9 15 -4 0 -8 4
-8 8 0 5 7 9 15 9 8 0 12 -3 10 -7z m-3137 -25 c-6 -14 -13 -23 -16 -20 -3 3
-11 0 -19 -6 -10 -9 -13 -8 -13 1 0 7 -7 10 -16 6 -15 -6 -15 -4 -3 10 8 10
15 12 17 5 2 -6 8 -11 13 -11 4 0 6 7 3 15 -4 8 -1 15 6 15 6 0 8 -4 5 -10 -3
-5 -2 -10 3 -10 6 0 12 7 16 15 3 8 8 15 10 15 3 0 0 -11 -6 -25z m401 -1
c-14 -17 2 -19 19 -2 9 9 12 9 12 0 0 -7 4 -12 10 -12 5 0 7 7 4 15 -4 8 -1
15 6 15 6 0 8 -4 5 -10 -11 -17 7 -11 22 8 12 15 12 13 2 -11 -7 -15 -14 -25
-17 -22 -3 3 -11 0 -19 -6 -9 -8 -13 -8 -13 -1 0 8 -32 10 -57 3 -11 -3 -18 1
-18 11 0 6 -6 13 -14 16 -8 3 -11 0 -7 -6 10 -17 -8 -21 -28 -6 -11 7 -16 17
-11 21 4 5 10 2 12 -5 4 -10 8 -10 19 -1 10 9 17 9 28 0 10 -9 16 -8 26 4 7 8
16 12 22 9 5 -3 4 -12 -3 -20z m480 0 c-14 -17 2 -19 19 -2 9 9 12 9 12 0 0
-7 4 -12 10 -12 5 0 7 7 4 15 -4 8 -1 15 6 15 6 0 8 -4 5 -10 -11 -17 7 -11
22 8 12 15 12 13 2 -11 -7 -15 -14 -25 -17 -22 -3 3 -11 0 -19 -6 -9 -8 -13
-8 -13 -1 0 8 -32 10 -57 3 -11 -3 -18 1 -18 11 0 6 -6 13 -14 16 -8 3 -11 0
-7 -6 10 -17 -8 -21 -28 -6 -11 7 -16 17 -11 21 4 5 10 2 12 -5 4 -10 8 -10
19 -1 10 9 17 9 28 0 10 -9 16 -8 26 4 7 8 16 12 22 9 5 -3 4 -12 -3 -20z
m480 0 c-14 -17 2 -19 19 -2 9 9 12 9 12 0 0 -7 4 -12 10 -12 5 0 7 7 4 15 -4
8 -1 15 6 15 6 0 8 -4 5 -10 -11 -17 7 -11 22 8 12 15 12 13 2 -11 -7 -15 -14
-25 -17 -22 -3 3 -11 0 -19 -6 -9 -8 -13 -8 -13 -1 0 8 -32 10 -57 3 -11 -3
-18 1 -18 11 0 6 -6 13 -14 16 -8 3 -11 0 -7 -6 10 -17 -8 -21 -28 -6 -11 7
-16 17 -11 21 4 5 10 2 12 -5 4 -10 8 -10 19 -1 10 9 17 9 28 0 10 -9 16 -8
26 4 7 8 16 12 22 9 5 -3 4 -12 -3 -20z m480 0 c-14 -17 2 -19 19 -2 9 9 12 9
12 0 0 -7 4 -12 10 -12 5 0 7 7 4 15 -4 8 -1 15 6 15 6 0 8 -4 5 -10 -11 -17
7 -11 22 8 12 15 12 13 2 -11 -7 -15 -14 -25 -17 -22 -3 3 -11 0 -19 -6 -9 -8
-13 -8 -13 -1 0 8 -32 10 -57 3 -11 -3 -18 1 -18 11 0 6 -6 13 -14 16 -8 3
-11 0 -7 -6 10 -17 -8 -21 -28 -6 -11 7 -16 17 -11 21 4 5 10 2 12 -5 4 -10 8
-10 19 -1 10 9 17 9 28 0 10 -9 16 -8 26 4 7 8 16 12 22 9 5 -3 4 -12 -3 -20z
m480 0 c-14 -17 2 -19 19 -2 9 9 12 9 12 0 0 -7 4 -12 10 -12 5 0 7 7 4 15 -4
8 -1 15 6 15 6 0 8 -4 5 -10 -11 -17 7 -11 22 8 12 15 12 13 2 -11 -7 -15 -14
-25 -17 -22 -3 3 -11 0 -19 -6 -9 -8 -13 -8 -13 -1 0 8 -32 10 -57 3 -11 -3
-18 1 -18 11 0 6 -6 13 -14 16 -8 3 -11 0 -7 -6 10 -17 -8 -21 -28 -6 -11 7
-16 17 -11 21 4 5 10 2 12 -5 4 -10 8 -10 19 -1 10 9 17 9 28 0 10 -9 16 -8
26 4 7 8 16 12 22 9 5 -3 4 -12 -3 -20z m480 0 c-14 -17 2 -19 19 -2 9 9 12 9
12 0 0 -7 4 -12 10 -12 5 0 7 7 4 15 -4 8 -1 15 6 15 6 0 8 -4 5 -10 -11 -17
7 -11 22 8 12 15 12 13 2 -11 -7 -15 -14 -25 -17 -22 -3 3 -11 0 -19 -6 -9 -8
-13 -8 -13 -1 0 8 -32 10 -57 3 -11 -3 -18 1 -18 11 0 6 -6 13 -14 16 -8 3
-11 0 -7 -6 10 -17 -8 -21 -28 -6 -11 7 -16 17 -11 21 4 5 10 2 12 -5 4 -10 8
-10 19 -1 10 9 17 9 28 0 10 -9 16 -8 26 4 7 8 16 12 22 9 5 -3 4 -12 -3 -20z"/>
<path d="M4429 4337 c6 -8 7 -18 3 -23 -4 -5 -3 -5 2 -1 16 13 15 37 -1 37
-12 0 -13 -3 -4 -13z"/>
<path d="M4433 4245 c0 -8 4 -15 9 -15 4 0 8 4 8 9 0 6 -4 12 -8 15 -5 3 -9
-1 -9 -9z"/>
<path d="M4429 4097 c6 -8 7 -18 3 -23 -4 -5 -3 -5 2 -1 16 13 15 37 -1 37
-12 0 -13 -3 -4 -13z"/>
<path d="M4433 4005 c0 -8 4 -15 9 -15 4 0 8 4 8 9 0 6 -4 12 -8 15 -5 3 -9
-1 -9 -9z"/>
<path d="M4420 3866 c0 -2 6 -9 13 -15 10 -8 14 -7 14 4 0 8 -6 15 -14 15 -7
0 -13 -2 -13 -4z"/>
<path d="M4429 3777 c6 -8 7 -18 3 -23 -4 -5 -3 -5 2 -1 16 13 15 37 -1 37
-12 0 -13 -3 -4 -13z"/>
<path d="M4433 3685 c0 -8 4 -15 9 -15 4 0 8 4 8 9 0 6 -4 12 -8 15 -5 3 -9
-1 -9 -9z"/>
<path d="M4429 3537 c6 -8 7 -18 3 -23 -4 -5 -3 -5 2 -1 16 13 15 37 -1 37
-12 0 -13 -3 -4 -13z"/>
<path d="M4433 3445 c0 -8 4 -15 9 -15 4 0 8 4 8 9 0 6 -4 12 -8 15 -5 3 -9
-1 -9 -9z"/>
<path d="M4429 3297 c6 -8 7 -18 3 -23 -4 -5 -3 -5 2 -1 16 13 15 37 -1 37
-12 0 -13 -3 -4 -13z"/>
<path d="M4680 2800 c-9 -6 -10 -10 -3 -10 6 0 15 5 18 10 8 12 4 12 -15 0z"/>
<path d="M4610 2705 c-18 -19 -20 -25 -8 -25 19 0 52 36 40 44 -5 3 -20 -6
-32 -19z m30 11 c0 -2 -8 -10 -17 -17 -16 -13 -17 -12 -4 4 13 16 21 21 21 13z"/>
<path d="M4429 2017 c6 -8 7 -18 3 -23 -4 -5 -3 -5 2 -1 16 13 15 37 -1 37
-12 0 -13 -3 -4 -13z"/>
<path d="M4433 1925 c0 -8 4 -15 9 -15 4 0 8 4 8 9 0 6 -4 12 -8 15 -5 3 -9
-1 -9 -9z"/>
<path d="M4429 1777 c6 -8 7 -18 3 -23 -4 -5 -3 -5 2 -1 16 13 15 37 -1 37
-12 0 -13 -3 -4 -13z"/>
<path d="M4433 1685 c0 -8 4 -15 9 -15 4 0 8 4 8 9 0 6 -4 12 -8 15 -5 3 -9
-1 -9 -9z"/>
<path d="M4429 1537 c6 -8 7 -18 3 -23 -4 -5 -3 -5 2 -1 16 13 15 37 -1 37
-12 0 -13 -3 -4 -13z"/>
<path d="M4433 1445 c0 -8 4 -15 9 -15 4 0 8 4 8 9 0 6 -4 12 -8 15 -5 3 -9
-1 -9 -9z"/>
<path d="M4420 1306 c0 -2 6 -9 13 -15 10 -8 14 -7 14 4 0 8 -6 15 -14 15 -7
0 -13 -2 -13 -4z"/>
<path d="M4429 1217 c6 -8 7 -18 3 -23 -4 -5 -3 -5 2 -1 16 13 15 37 -1 37
-12 0 -13 -3 -4 -13z"/>
<path d="M4433 1125 c0 -8 4 -15 9 -15 4 0 8 4 8 9 0 6 -4 12 -8 15 -5 3 -9
-1 -9 -9z"/>
<path d="M4429 977 c6 -8 7 -18 3 -23 -4 -5 -3 -5 2 -1 16 13 15 37 -1 37 -12
0 -13 -3 -4 -13z"/>
<path d="M4433 885 c0 -8 4 -15 9 -15 4 0 8 4 8 9 0 6 -4 12 -8 15 -5 3 -9 -1
-9 -9z"/>
<path d="M4429 737 c6 -8 7 -18 3 -23 -4 -5 -3 -5 2 -1 16 13 15 37 -1 37 -12
0 -13 -3 -4 -13z"/>
<path d="M4433 645 c0 -8 4 -15 9 -15 4 0 8 4 8 9 0 6 -4 12 -8 15 -5 3 -9 -1
-9 -9z"/>
<path d="M4429 497 c6 -8 7 -18 3 -23 -4 -5 -3 -5 2 -1 16 13 15 37 -1 37 -12
0 -13 -3 -4 -13z"/>
<path d="M4433 405 c0 -8 4 -15 9 -15 4 0 8 4 8 9 0 6 -4 12 -8 15 -5 3 -9 -1
-9 -9z"/>
<path d="M4429 257 c6 -8 7 -18 3 -23 -4 -5 -3 -5 2 -1 16 13 15 37 -1 37 -12
0 -13 -3 -4 -13z"/>
<path d="M4430 206 c0 -9 0 -18 0 -21 0 -3 3 -5 7 -5 10 -1 12 29 2 36 -5 3
-9 -2 -9 -10z"/>
<path d="M910 79 c0 -5 -6 -7 -12 -3 -7 4 -10 3 -5 -1 12 -14 44 -13 44 2 0 7
-6 13 -14 13 -7 0 -13 -5 -13 -11z"/>
<path d="M979 73 c-13 -16 -12 -17 4 -4 9 7 17 15 17 17 0 8 -8 3 -21 -13z"/>
<path d="M4341 66 c-10 -12 -8 -13 8 -9 12 3 18 9 15 14 -7 12 -10 11 -23 -5z"/>
<path d="M4210 76 c0 -2 6 -9 14 -15 11 -9 16 -9 22 0 4 8 3 9 -4 5 -7 -4 -12
-2 -12 3 0 6 -4 11 -10 11 -5 0 -10 -2 -10 -4z"/>
<path d="M1454 68 l-19 -23 23 19 c12 11 22 21 22 23 0 8 -8 2 -26 -19z"/>
<path d="M1934 68 l-19 -23 23 19 c12 11 22 21 22 23 0 8 -8 2 -26 -19z"/>
<path d="M2414 68 l-19 -23 23 19 c12 11 22 21 22 23 0 8 -8 2 -26 -19z"/>
<path d="M2894 68 l-19 -23 23 19 c12 11 22 21 22 23 0 8 -8 2 -26 -19z"/>
<path d="M3374 68 l-19 -23 23 19 c12 11 22 21 22 23 0 8 -8 2 -26 -19z"/>
<path d="M3854 68 l-19 -23 23 19 c12 11 22 21 22 23 0 8 -8 2 -26 -19z"/>
<path d="M4060 4801 c0 -5 8 -15 18 -22 15 -12 16 -12 5 2 -7 9 -10 19 -6 22
3 4 1 7 -5 7 -7 0 -12 -4 -12 -9z"/>
<path d="M4054 4772 c3 -6 2 -13 -4 -17 -6 -4 -7 -12 -3 -18 8 -12 9 -17 12
-37 0 -5 6 -10 12 -10 5 0 7 5 4 10 -3 6 0 10 7 10 10 0 10 2 -1 9 -12 8 -12
10 0 14 8 2 6 3 -4 1 -13 -2 -16 2 -12 16 3 10 0 22 -6 26 -7 4 -9 3 -5 -4z"/>
<path d="M4096 4702 c-3 -5 1 -9 9 -9 8 0 12 4 9 9 -3 4 -7 8 -9 8 -2 0 -6 -4
-9 -8z"/>
<path d="M4097 4623 c-9 -9 -9 -41 1 -46 4 -3 7 8 7 24 0 16 0 29 -1 29 0 0
-4 -3 -7 -7z"/>
<path d="M4435 4440 c-3 -5 -1 -10 4 -10 6 0 11 5 11 10 0 6 -2 10 -4 10 -3 0
-8 -4 -11 -10z"/>
<path d="M4476 4182 c-3 -5 1 -9 9 -9 8 0 12 4 9 9 -3 4 -7 8 -9 8 -2 0 -6 -4
-9 -8z"/>
<path d="M4490 4141 c0 -6 4 -13 10 -16 6 -3 7 1 4 9 -7 18 -14 21 -14 7z"/>
<path d="M4490 3901 c0 -6 4 -13 10 -16 6 -3 7 1 4 9 -7 18 -14 21 -14 7z"/>
<path d="M4490 3741 c0 -6 4 -13 10 -16 6 -3 7 1 4 9 -7 18 -14 21 -14 7z"/>
<path d="M4490 3501 c0 -6 4 -13 10 -16 6 -3 7 1 4 9 -7 18 -14 21 -14 7z"/>
<path d="M4490 3261 c0 -6 4 -13 10 -16 6 -3 7 1 4 9 -7 18 -14 21 -14 7z"/>
<path d="M4730 2920 c0 -5 5 -10 11 -10 5 0 7 5 4 10 -3 6 -8 10 -11 10 -2 0
-4 -4 -4 -10z"/>
<path d="M4730 2771 c0 -7 -4 -10 -8 -7 -4 2 -9 -4 -9 -15 -1 -10 3 -19 9 -19
6 0 8 3 5 7 -4 3 -2 12 5 20 6 7 8 16 4 20 -3 3 -6 1 -6 -6z"/>
<path d="M4660 2682 c0 -5 7 -9 15 -9 8 0 12 4 9 9 -3 4 -9 8 -15 8 -5 0 -9
-4 -9 -8z"/>
<path d="M4559 2647 c-1 -4 -2 -10 -3 -14 -1 -5 -5 -14 -9 -20 -5 -8 -3 -13 4
-13 7 0 22 -9 34 -20 17 -16 22 -17 22 -6 0 8 -4 13 -8 10 -9 -5 -22 14 -26
40 -4 21 -12 34 -14 23z"/>
<path d="M4518 2543 c8 -3 5 -10 -10 -22 -12 -10 -22 -28 -23 -40 -1 -11 0
-19 3 -16 3 2 14 0 26 -6 19 -9 20 -9 3 4 -15 13 -15 16 -2 27 8 7 15 19 15
26 0 8 6 14 13 14 8 0 7 4 -3 10 -8 5 -19 9 -25 9 -5 0 -4 -3 3 -6z m-3 -42
c-3 -6 -11 -11 -17 -11 -6 0 -6 6 2 15 14 17 26 13 15 -4z"/>
<path d="M4448 2403 c-7 -9 -7 -13 0 -13 13 0 10 -38 -7 -68 -14 -26 -7 -42
11 -24 8 8 15 9 25 1 8 -7 13 -8 13 -1 0 5 -7 12 -15 16 -8 3 -15 10 -15 16 0
6 6 8 13 4 10 -6 10 -4 0 7 -19 20 -16 33 5 18 14 -11 15 -11 5 1 -18 19 -16
35 1 21 11 -9 16 -9 22 0 4 7 3 9 -4 5 -6 -3 -13 -2 -17 3 -3 5 2 14 12 19 14
8 12 10 -11 9 -15 -1 -32 -8 -38 -14z"/>
<path d="M4490 2221 c0 -6 4 -13 10 -16 6 -3 7 1 4 9 -7 18 -14 21 -14 7z"/>
<path d="M4433 2165 c0 -8 4 -15 9 -15 4 0 8 4 8 9 0 6 -4 12 -8 15 -5 3 -9
-1 -9 -9z"/>
<path d="M4490 1981 c0 -6 4 -13 10 -16 6 -3 7 1 4 9 -7 18 -14 21 -14 7z"/>
<path d="M4490 1821 c0 -6 4 -13 10 -16 6 -3 7 1 4 9 -7 18 -14 21 -14 7z"/>
<path d="M4490 1581 c0 -6 4 -13 10 -16 6 -3 7 1 4 9 -7 18 -14 21 -14 7z"/>
<path d="M4490 1341 c0 -6 4 -13 10 -16 6 -3 7 1 4 9 -7 18 -14 21 -14 7z"/>
<path d="M4490 1181 c0 -6 4 -13 10 -16 6 -3 7 1 4 9 -7 18 -14 21 -14 7z"/>
<path d="M4490 941 c0 -6 4 -13 10 -16 6 -3 7 1 4 9 -7 18 -14 21 -14 7z"/>
<path d="M4490 701 c0 -6 4 -13 10 -16 6 -3 7 1 4 9 -7 18 -14 21 -14 7z"/>
<path d="M4490 541 c0 -6 4 -13 10 -16 6 -3 7 1 4 9 -7 18 -14 21 -14 7z"/>
<path d="M455 489 c-4 -6 -5 -12 -2 -15 2 -3 7 2 10 11 7 17 1 20 -8 4z"/>
<path d="M515 411 c-3 -5 -2 -12 3 -15 5 -3 9 1 9 9 0 17 -3 19 -12 6z"/>
<path d="M697 407 c-3 -8 1 -14 8 -14 7 0 11 6 8 14 -3 7 -6 13 -8 13 -2 0 -5
-6 -8 -13z"/>
<path d="M590 399 c0 -5 5 -7 10 -4 6 3 10 8 10 11 0 2 -4 4 -10 4 -5 0 -10
-5 -10 -11z"/>
<path d="M4490 301 c0 -6 4 -13 10 -16 6 -3 7 1 4 9 -7 18 -14 21 -14 7z"/>
<path d="M4449 123 c-7 -44 -6 -63 1 -68 5 -3 12 0 16 6 4 7 3 9 -4 5 -13 -8
-13 34 1 52 6 8 6 12 -2 12 -6 0 -12 -3 -12 -7z"/>
<path d="M4475 110 c-3 -5 -2 -18 4 -27 7 -14 9 -12 8 10 -2 30 -3 31 -12 17z"/>
<path d="M840 91 c0 -6 4 -13 10 -16 6 -3 7 1 4 9 -7 18 -14 21 -14 7z"/>
<path d="M1010 20 c0 -5 5 -10 11 -10 5 0 7 5 4 10 -3 6 -8 10 -11 10 -2 0 -4
-4 -4 -10z"/>
<path d="M1175 21 c-3 -5 -2 -12 3 -15 5 -3 9 1 9 9 0 17 -3 19 -12 6z"/>
<path d="M1228 23 c7 -3 16 -2 19 1 4 3 -2 6 -13 5 -11 0 -14 -3 -6 -6z"/>
<path d="M1295 20 c-3 -5 -1 -10 4 -10 6 0 11 5 11 10 0 6 -2 10 -4 10 -3 0
-8 -4 -11 -10z"/>
<path d="M1348 23 c7 -3 16 -2 19 1 4 3 -2 6 -13 5 -11 0 -14 -3 -6 -6z"/>
<path d="M1490 20 c0 -5 5 -10 11 -10 5 0 7 5 4 10 -3 6 -8 10 -11 10 -2 0 -4
-4 -4 -10z"/>
<path d="M1655 21 c-3 -5 -2 -12 3 -15 5 -3 9 1 9 9 0 17 -3 19 -12 6z"/>
<path d="M1708 23 c7 -3 16 -2 19 1 4 3 -2 6 -13 5 -11 0 -14 -3 -6 -6z"/>
<path d="M1775 20 c-3 -5 -1 -10 4 -10 6 0 11 5 11 10 0 6 -2 10 -4 10 -3 0
-8 -4 -11 -10z"/>
<path d="M1828 23 c7 -3 16 -2 19 1 4 3 -2 6 -13 5 -11 0 -14 -3 -6 -6z"/>
<path d="M1970 20 c0 -5 5 -10 11 -10 5 0 7 5 4 10 -3 6 -8 10 -11 10 -2 0 -4
-4 -4 -10z"/>
<path d="M2135 21 c-3 -5 -2 -12 3 -15 5 -3 9 1 9 9 0 17 -3 19 -12 6z"/>
<path d="M2188 23 c7 -3 16 -2 19 1 4 3 -2 6 -13 5 -11 0 -14 -3 -6 -6z"/>
<path d="M2255 20 c-3 -5 -1 -10 4 -10 6 0 11 5 11 10 0 6 -2 10 -4 10 -3 0
-8 -4 -11 -10z"/>
<path d="M2308 23 c7 -3 16 -2 19 1 4 3 -2 6 -13 5 -11 0 -14 -3 -6 -6z"/>
<path d="M2450 20 c0 -5 5 -10 11 -10 5 0 7 5 4 10 -3 6 -8 10 -11 10 -2 0 -4
-4 -4 -10z"/>
<path d="M2615 21 c-3 -5 -2 -12 3 -15 5 -3 9 1 9 9 0 17 -3 19 -12 6z"/>
<path d="M2668 23 c7 -3 16 -2 19 1 4 3 -2 6 -13 5 -11 0 -14 -3 -6 -6z"/>
<path d="M2735 20 c-3 -5 -1 -10 4 -10 6 0 11 5 11 10 0 6 -2 10 -4 10 -3 0
-8 -4 -11 -10z"/>
<path d="M2788 23 c7 -3 16 -2 19 1 4 3 -2 6 -13 5 -11 0 -14 -3 -6 -6z"/>
<path d="M2930 20 c0 -5 5 -10 11 -10 5 0 7 5 4 10 -3 6 -8 10 -11 10 -2 0 -4
-4 -4 -10z"/>
<path d="M3095 21 c-3 -5 -2 -12 3 -15 5 -3 9 1 9 9 0 17 -3 19 -12 6z"/>
<path d="M3148 23 c7 -3 16 -2 19 1 4 3 -2 6 -13 5 -11 0 -14 -3 -6 -6z"/>
<path d="M3215 20 c-3 -5 -1 -10 4 -10 6 0 11 5 11 10 0 6 -2 10 -4 10 -3 0
-8 -4 -11 -10z"/>
<path d="M3268 23 c7 -3 16 -2 19 1 4 3 -2 6 -13 5 -11 0 -14 -3 -6 -6z"/>
<path d="M3410 20 c0 -5 5 -10 11 -10 5 0 7 5 4 10 -3 6 -8 10 -11 10 -2 0 -4
-4 -4 -10z"/>
<path d="M3575 21 c-3 -5 -2 -12 3 -15 5 -3 9 1 9 9 0 17 -3 19 -12 6z"/>
<path d="M3628 23 c7 -3 16 -2 19 1 4 3 -2 6 -13 5 -11 0 -14 -3 -6 -6z"/>
<path d="M3695 20 c-3 -5 -1 -10 4 -10 6 0 11 5 11 10 0 6 -2 10 -4 10 -3 0
-8 -4 -11 -10z"/>
<path d="M3748 23 c7 -3 16 -2 19 1 4 3 -2 6 -13 5 -11 0 -14 -3 -6 -6z"/>
<path d="M3890 20 c0 -5 5 -10 11 -10 5 0 7 5 4 10 -3 6 -8 10 -11 10 -2 0 -4
-4 -4 -10z"/>
<path d="M4055 21 c-3 -5 -2 -12 3 -15 5 -3 9 1 9 9 0 17 -3 19 -12 6z"/>
<path d="M4108 23 c7 -3 16 -2 19 1 4 3 -2 6 -13 5 -11 0 -14 -3 -6 -6z"/>
<path d="M4190 26 c0 -2 9 -6 20 -9 11 -3 18 -1 14 4 -5 9 -34 13 -34 5z"/>
</g>
</svg>
