<svg xmlns="http://www.w3.org/2000/svg" xmlns:xlink="http://www.w3.org/1999/xlink" version="1.1">

    <symbol id="icon-profile" viewBox="0 0 28.32 28.32">
        <g>
            <g>
                <path fill="#0071bb"
                      d="M14.16,28.32A14.16,14.16,0,1,1,28.32,14.16,14.17,14.17,0,0,1,14.16,28.32Zm0-28.07A13.91,13.91,0,1,0,28.07,14.16,13.93,13.93,0,0,0,14.16.25Z"/>
                <path fill="#0071bb" d="M26.85,14.16A12.69,12.69,0,1,1,14.16,1.47,12.69,12.69,0,0,1,26.85,14.16Z"/>
                <path fill="#fff"
                      d="M16.39,14.29a3.43,3.43,0,1,0-4.09,0,6.23,6.23,0,0,0-4.21,5.9h12.5A6.24,6.24,0,0,0,16.39,14.29Z"/>
            </g>
        </g>
    </symbol>

    <symbol id="icon-contact" viewBox="0 0 28.32 28.32">
        <g>
            <g>
                <path fill="#0071bb"
                      d="M14.16,28.32A14.16,14.16,0,1,1,28.32,14.16,14.17,14.17,0,0,1,14.16,28.32Zm0-28.07A13.91,13.91,0,1,0,28.07,14.16,13.93,13.93,0,0,0,14.16.25Z"/>
                <path fill="#0071bb"
                      d="M26.85,14.16A12.69,12.69,0,1,1,14.16,1.47,12.69,12.69,0,0,1,26.85,14.16Z"/>
                <path fill="#fff"
                      d="M21.93,18.55a.73.73,0,0,1-.22.64l-2.14,2.13a1.36,1.36,0,0,1-.38.27,1.45,1.45,0,0,1-.46.15h-.31a7,7,0,0,1-1-.1,7.23,7.23,0,0,1-1.68-.52,13.64,13.64,0,0,1-2.24-1.23,16.27,16.27,0,0,1-2.67-2.25A18.83,18.83,0,0,1,9,15.53a15.37,15.37,0,0,1-1.19-1.88,9.74,9.74,0,0,1-.67-1.56,7.91,7.91,0,0,1-.31-1.2,4.33,4.33,0,0,1-.06-.8c0-.19,0-.3,0-.32a1.45,1.45,0,0,1,.15-.46,1.09,1.09,0,0,1,.27-.38L9.32,6.79a.7.7,0,0,1,.52-.22.61.61,0,0,1,.37.12,1.31,1.31,0,0,1,.27.3l1.72,3.26a.77.77,0,0,1,.08.56,1,1,0,0,1-.27.52l-.79.79a.29.29,0,0,0-.06.1.74.74,0,0,0,0,.12,2.8,2.8,0,0,0,.29.78,8.76,8.76,0,0,0,.59.94,10.77,10.77,0,0,0,1.15,1.27,10,10,0,0,0,1.28,1.15,7.49,7.49,0,0,0,.94.61,2.17,2.17,0,0,0,.58.23l.2,0,.11,0,.1-.06.92-.93a1,1,0,0,1,.68-.26.78.78,0,0,1,.43.1h0L21.53,18A.82.82,0,0,1,21.93,18.55Z"/>
            </g>
        </g>
    </symbol>

    <symbol id="icon-skills" viewBox="0 0 28.32 28.32">
        <g>
            <g>
                <path fill="#0071bb"
                      d="M14.16,28.32A14.16,14.16,0,1,1,28.32,14.16,14.17,14.17,0,0,1,14.16,28.32Zm0-28.07A13.91,13.91,0,1,0,28.07,14.16,13.93,13.93,0,0,0,14.16.25Z"/>
                <path fill="#0071bb"
                      d="M26.85,14.16A12.69,12.69,0,1,1,14.16,1.47,12.69,12.69,0,0,1,26.85,14.16Z"/>
                <path fill="#fff"
                      d="M20.09,11.76a5.93,5.93,0,1,0-8.92,5.1v.21a2.24,2.24,0,0,0,2.24,2.23h1.5a2.23,2.23,0,0,0,2.23-2.23v-.21A5.9,5.9,0,0,0,20.09,11.76Z"/>
                <path fill="#fff" d="M16,20.15H12.34a1.17,1.17,0,0,0,0,2.34H16a1.17,1.17,0,0,0,0-2.34Z"/>
            </g>
        </g>
    </symbol>

    <symbol id="icon-edu" viewBox="0 0 28.32 28.32">
        <g>
            <g>
                <path fill="#0071bb"
                      d="M14.16,28.32A14.16,14.16,0,1,1,28.32,14.16,14.17,14.17,0,0,1,14.16,28.32Zm0-28.07A13.91,13.91,0,1,0,28.07,14.16,13.93,13.93,0,0,0,14.16.25Z"/>
                <path fill="#0071bb"
                      d="M26.85,14.16A12.69,12.69,0,1,1,14.16,1.47,12.69,12.69,0,0,1,26.85,14.16Z"/>
                <polygon fill="#fff"
                         points="14.16 5.23 16.38 12.05 23.55 12.05 17.75 16.27 19.96 23.09 14.16 18.87 8.36 23.09 10.57 16.27 4.77 12.05 11.94 12.05 14.16 5.23"/>
            </g>
        </g>
    </symbol>

    <symbol id="icon-exp" viewBox="0 0 28.32 28.32">
        <g>
            <g>
                <path fill="#0071bb"
                      d="M14.16,28.32A14.16,14.16,0,1,1,28.32,14.16,14.17,14.17,0,0,1,14.16,28.32Zm0-28.07A13.91,13.91,0,1,0,28.07,14.16,13.93,13.93,0,0,0,14.16.25Z"/>
                <path fill="#0071bb"
                      d="M26.85,14.16A12.69,12.69,0,1,1,14.16,1.47,12.69,12.69,0,0,1,26.85,14.16Z"/>
                <path fill="#fff"
                      d="M18.05,10.67a3.89,3.89,0,0,0-7.78,0H7V21.35H21.32V10.67ZM14.16,8.06A2.82,2.82,0,0,1,17,10.67h-5.6A2.82,2.82,0,0,1,14.16,8.06Z"/>
            </g>
        </g>
    </symbol>

    <symbol id="icon-software" viewBox="0 0 28.32 28.32">
        <g>
            <g>
                <path fill="#0071bb"
                      d="M14.16,28.32A14.16,14.16,0,1,1,28.32,14.16,14.17,14.17,0,0,1,14.16,28.32Zm0-28.07A13.91,13.91,0,1,0,28.07,14.16,13.93,13.93,0,0,0,14.16.25Z"/>
                <path fill="#0071bb"
                      d="M26.85,14.16A12.69,12.69,0,1,1,14.16,1.47,12.69,12.69,0,0,1,26.85,14.16Z"/>
                <path fill="#fff"
                      d="M19.05,8.55a1,1,0,0,1,1,1v5.25a1,1,0,0,1-1,1H9.27a1,1,0,0,1-1-1V9.57a1,1,0,0,1,1-1h9.78m0-1H9.27a2,2,0,0,0-2,2v5.25a2,2,0,0,0,2,2h9.78a2,2,0,0,0,2-2V9.57a2,2,0,0,0-2-2Z"/>
                <polygon fill="#fff" points="22.59 20.78 5.72 20.78 7.24 18.12 21.08 18.12 22.59 20.78"/>
            </g>
        </g>
    </symbol>

    <view id="profile-view" viewBox="0 0 28.32 28.32"></view>
    <view id="contact-view" viewBox="0 30 28.32 28.32"></view>
    <view id="skills-view" viewBox="0 60 28.32 28.32"></view>
    <view id="edu-view" viewBox="0 90 28.32 28.32"></view>
    <view id="exp-view" viewBox="0 120 28.32 28.32"></view>
    <view id="software-view" viewBox="0 150 28.32 28.32"></view>

    <use xlink:href="#icon-profile" width="28.32" height="28.32" x="0" y="0"></use>
    <use xlink:href="#icon-contact" width="28.32" height="28.32" x="0" y="30"></use>
    <use xlink:href="#icon-skills" width="28.32" height="28.32" x="0" y="60"></use>
    <use xlink:href="#icon-edu" width="28.32" height="28.32" x="0" y="90"></use>
    <use xlink:href="#icon-exp" width="28.32" height="28.32" x="0" y="120"></use>
    <use xlink:href="#icon-software" width="28.32" height="28.32" x="0" y="150"></use>

</svg>
